 <svg style="opacity: 1.0;" version="1.0" xmlns="http://www.w3.org/2000/svg"  width="300.000000pt" height="185.000000pt" viewBox="0 0 300.000000 185.000000"  preserveAspectRatio="xMidYMid meet">  <g transform="translate(0.000000,185.000000) scale(0.100000,-0.100000)" fill="#000000" stroke="none"> <path d="M2 1755 l1 -100 7 79 c5 44 4 89 0 100 -6 13 -8 -17 -8 -79z"/> <path d="M33 1833 c0 -10 5 -24 10 -32 15 -18 17 -32 18 -157 1 -62 5 -118 10 -125 7 -11 7 220 0 293 -1 3 -7 8 -13 11 -7 2 -4 3 7 1 11 -2 205 -4 432 -4 393 0 411 -1 406 -18 -2 -10 3 -24 12 -32 14 -11 19 -11 32 3 9 9 13 20 9 24 -4 4 -11 1 -15 -6 -5 -7 -13 -11 -19 -7 -12 7 -4 46 10 46 5 0 7 -4 4 -8 -3 -5 8 -7 23 -4 l29 4 -11 -46 c-7 -31 -15 -45 -23 -42 -8 3 -16 0 -20 -6 -4 -6 -3 -8 3 -5 14 9 33 -37 26 -64 -5 -17 -3 -20 7 -14 10 6 11 3 6 -16 -4 -13 -7 -45 -6 -71 0 -25 -3 -49 -9 -52 -14 -9 -25 14 -12 27 6 6 11 16 11 21 0 6 -4 4 -10 -4 -5 -8 -21 -15 -37 -16 -15 -1 -27 -7 -26 -13 2 -6 -2 -11 -7 -11 -12 0 -13 17 -1 24 5 3 9 17 9 31 -1 14 -2 24 -5 21 -2 -2 -15 6 -27 18 -13 11 -33 28 -45 37 -16 12 -22 25 -19 45 3 26 7 29 38 29 31 0 35 -3 38 -28 2 -16 -3 -36 -10 -44 -11 -15 -11 -16 5 -10 10 4 25 7 34 7 12 0 12 2 -1 16 -21 21 -20 51 2 63 14 8 12 10 -13 10 -16 1 -79 2 -138 3 -60 2 -111 -1 -115 -6 -3 -5 0 -6 5 -3 6 4 22 -2 36 -13 21 -17 26 -18 31 -5 7 18 47 20 64 3 19 -19 14 -55 -10 -72 -12 -9 -18 -19 -14 -23 4 -4 11 -1 15 6 6 9 18 11 35 7 15 -4 24 -11 21 -16 -3 -6 3 -10 13 -10 30 0 46 -24 32 -49 -14 -27 -56 -28 -65 -1 -3 11 -4 24 -1 29 5 7 -14 21 -29 21 -1 0 1 -19 6 -41 6 -23 7 -44 4 -47 -3 -3 -5 2 -5 12 0 12 -6 15 -23 11 -29 -8 -52 16 -44 45 3 13 0 20 -9 20 -22 0 -17 31 6 37 16 4 18 8 9 19 -10 12 -14 11 -25 -5 -8 -11 -24 -21 -36 -23 -12 -2 -23 -10 -25 -18 -4 -13 -3 -13 6 0 7 10 11 11 11 3 0 -7 7 -13 15 -13 16 0 38 -34 28 -44 -4 -3 2 -12 11 -19 17 -13 17 -14 1 -30 -18 -19 -39 -13 -31 9 3 9 -1 14 -13 14 -24 0 -45 25 -37 45 3 9 2 14 -3 11 -11 -7 -43 28 -34 37 3 4 14 7 24 7 12 0 16 5 13 15 -8 21 -16 18 -44 -18 -14 -17 -20 -28 -14 -24 12 7 47 -25 42 -39 -4 -12 37 -64 50 -64 5 0 12 -7 16 -15 4 -10 -1 -15 -14 -15 -11 0 -20 5 -20 12 0 6 -2 9 -5 6 -8 -8 6 -39 15 -33 5 3 14 -3 20 -12 10 -16 11 -16 6 -1 -7 24 12 33 32 14 11 -9 27 -13 42 -10 24 5 24 5 6 -10 -18 -14 -18 -16 -3 -16 10 0 21 9 25 21 l8 20 28 -22 27 -21 25 23 c21 20 28 19 26 -2 -1 -3 6 -6 14 -6 8 0 14 4 14 9 0 13 28 9 33 -4 3 -8 6 -5 6 5 2 36 19 6 26 -43 4 -32 3 -55 -4 -64 -6 -7 -8 -16 -4 -19 3 -4 -74 -7 -173 -7 -104 0 -173 -4 -165 -9 11 -7 10 -13 -4 -35 l-18 -27 -11 23 c-7 13 -8 24 -4 26 29 12 -10 17 -137 17 l-145 0 0 -35 c1 -61 42 -91 68 -50 16 26 47 26 69 0 10 -11 24 -20 33 -20 8 0 21 9 28 20 14 22 42 26 60 8 18 -18 15 -56 -5 -66 -20 -11 -63 2 -63 18 0 17 -39 11 -60 -10 -25 -25 -36 -25 -57 0 -18 21 -48 26 -58 10 -7 -11 32 -136 52 -166 9 -15 21 -20 33 -17 11 3 20 0 20 -6 0 -6 -6 -11 -12 -11 -7 0 -4 -6 7 -12 11 -6 24 -17 28 -25 11 -19 34 -16 57 7 25 25 46 25 62 0 13 -20 58 -28 58 -10 0 5 9 14 20 20 27 15 60 -4 60 -33 0 -46 -49 -64 -72 -27 -16 26 -50 26 -66 0 -16 -25 -37 -25 -62 0 -11 11 -27 20 -37 20 -30 0 15 -37 90 -76 54 -27 72 -32 83 -23 19 15 61 3 69 -20 6 -18 70 -39 83 -27 3 3 -4 6 -16 6 -32 0 -29 38 3 46 30 7 55 -10 55 -38 0 -28 33 -18 47 15 15 34 55 37 77 6 28 -41 42 -18 41 67 -1 78 -6 907 -5 932 0 6 11 12 25 12 18 0 23 -4 19 -15 -4 -8 -1 -22 5 -29 8 -10 9 -16 1 -21 -5 -3 -10 -1 -10 4 0 6 -7 11 -15 11 -8 0 -15 -6 -15 -13 0 -22 47 -14 69 12 25 28 27 39 6 21 -18 -15 -42 1 -31 19 10 16 177 15 175 -1 -4 -30 2 -38 27 -38 22 0 26 4 22 24 -5 23 -2 25 44 28 l48 3 0 -37 c0 -30 -4 -37 -17 -36 -10 1 -30 0 -44 0 -22 -2 -26 -6 -21 -27 5 -29 17 -32 31 -7 13 24 51 26 51 3 0 -16 10 -18 84 -19 47 0 94 -3 105 -7 15 -5 21 -2 21 9 0 9 5 16 11 16 6 0 9 -7 5 -15 -3 -8 -1 -15 4 -15 6 0 10 6 10 14 0 10 11 14 35 13 36 -1 50 -17 15 -17 -33 0 -23 -17 10 -18 26 -1 30 2 25 19 -5 13 -2 19 10 19 11 0 15 -6 10 -19 -5 -16 0 -19 30 -23 27 -3 39 0 46 13 13 26 -8 35 -32 13 -16 -15 -19 -15 -19 -1 0 8 6 18 13 20 6 3 -43 6 -111 6 -79 1 -121 -3 -117 -9 3 -6 -1 -7 -10 -4 -15 6 -54 11 -107 13 -26 1 -28 4 -28 46 l0 44 238 3 c301 4 297 4 299 -47 1 -34 -3 -42 -23 -52 -14 -6 -26 -7 -30 -2 -7 12 -54 11 -54 -1 0 -5 11 -10 25 -10 29 0 32 -8 9 -25 -14 -10 -9 -13 35 -22 49 -10 51 -9 51 12 0 15 8 25 23 29 32 8 37 7 37 -6 0 -6 -3 -8 -7 -5 -3 4 -13 -2 -21 -14 -18 -26 -16 -28 41 -35 50 -7 62 6 35 35 -10 10 -10 15 -2 18 19 6 5 39 -22 54 -19 10 -32 10 -54 2 -26 -10 -28 -9 -34 18 -11 57 -4 61 115 57 60 -2 109 0 109 5 0 4 -470 7 -1044 7 -574 0 -1051 2 -1059 5 -8 4 -14 -1 -14 -12z m1237 -34 c0 -5 -7 -9 -15 -9 -15 0 -20 12 -9 23 8 8 24 -1 24 -14z m-510 -298 c0 -5 3 -16 6 -24 4 -10 -4 -16 -25 -19 -24 -3 -31 -1 -31 12 0 9 5 21 12 28 14 14 38 16 38 3z m90 -22 c0 -25 -33 -22 -38 4 -2 12 3 17 17 17 15 0 21 -6 21 -21z m94 13 c9 -14 -12 -35 -28 -29 -23 9 -20 37 3 37 11 0 22 -4 25 -8z m-182 -199 c-6 -3 -10 -8 -7 -12 2 -5 -3 -17 -11 -27 -11 -14 -17 -16 -21 -6 -2 7 -11 19 -19 26 -20 20 -19 21 29 22 23 1 36 -1 29 -3z m123 -19 c-21 -22 -27 -25 -40 -14 -28 23 -18 40 25 40 l39 0 -24 -26z m75 7 c0 -14 -9 -20 -35 -23 -24 -3 -35 0 -35 9 0 8 10 12 27 11 14 -2 28 3 31 10 6 18 12 15 12 -7z m-590 -1 c0 -5 21 -10 46 -10 53 0 52 -15 -2 -18 -22 -2 -41 2 -46 10 -6 10 -10 10 -18 -2 -8 -12 -10 -11 -10 8 0 13 6 22 15 22 8 0 15 -4 15 -10z m215 -18 c-3 -3 -25 -6 -50 -8 -48 -2 -63 13 -17 18 33 4 75 -2 67 -10z m235 2 c0 -14 -42 -13 -47 1 -2 6 8 10 22 10 14 0 25 -5 25 -11z m-123 -1 c-11 -10 -57 -13 -57 -2 0 5 14 9 32 9 17 0 28 -3 25 -7z m3 -37 c6 -8 10 -25 8 -38 -4 -32 -62 -39 -78 -9 -23 44 38 85 70 47z m134 -8 c15 -24 -3 -52 -37 -56 -33 -4 -53 28 -37 59 14 25 58 23 74 -3z m126 2 c8 -14 8 -26 0 -40 -19 -35 -80 -20 -80 20 0 40 61 55 80 20z m-470 -90 c0 -11 -4 -20 -9 -20 -14 0 -23 18 -16 30 10 17 25 11 25 -10z m188 6 c49 1 38 -13 -13 -18 -35 -2 -45 0 -45 12 0 13 -1 13 -10 0 -5 -8 -12 -11 -15 -8 -14 14 7 29 28 21 12 -4 37 -7 55 -7z m202 10 c0 -2 -3 -11 -6 -20 -9 -23 -24 -20 -24 4 0 11 7 20 15 20 8 0 15 -2 15 -4z m-449 -23 c11 -15 11 -16 0 -6 -7 6 -20 9 -29 6 -10 -4 -13 -2 -8 5 10 17 21 15 37 -5z m130 4 c-7 -7 -18 -7 -33 0 -20 9 -20 10 10 10 22 0 29 -4 23 -10z m279 1 c0 -4 -20 -8 -45 -8 -25 0 -45 4 -45 9 0 5 20 9 45 9 25 -1 45 -5 45 -10z m116 0 c3 -4 -11 -8 -30 -8 -20 0 -36 4 -36 9 0 12 59 11 66 -1z m9 -48 c9 -15 -4 -47 -22 -54 -46 -18 -81 35 -43 66 22 18 50 13 65 -12z m-515 0 c8 -14 8 -26 0 -40 -19 -35 -80 -20 -80 20 0 40 61 55 80 20z m130 0 c15 -28 -4 -60 -34 -60 -32 0 -50 24 -42 55 5 20 13 25 36 25 19 0 33 -7 40 -20z m125 -14 c0 -52 -63 -62 -73 -12 -7 33 6 47 40 44 29 -3 33 -7 33 -32z m123 22 c30 -30 0 -75 -42 -64 -29 7 -40 31 -26 57 12 21 50 25 68 7z m49 -85 c2 -6 -3 -13 -12 -16 -10 -5 -15 0 -15 14 0 21 21 22 27 2z m-387 -27 c-13 -13 -35 7 -25 24 5 8 11 8 21 -1 10 -8 12 -15 4 -23z m130 18 c0 -17 -22 -14 -28 4 -2 7 3 12 12 12 9 0 16 -7 16 -16z m124 1 c-4 -8 -10 -15 -15 -15 -5 0 -9 7 -9 15 0 8 7 15 15 15 9 0 12 -6 9 -15z m-174 -5 c0 -5 -11 -10 -25 -10 -14 0 -25 5 -25 10 0 6 11 10 25 10 14 0 25 -4 25 -10z m126 1 c-3 -5 -17 -8 -31 -8 -14 0 -25 3 -25 8 0 5 14 9 31 9 16 0 28 -4 25 -9z m134 -1 c0 -5 -16 -10 -35 -10 -19 0 -35 5 -35 10 0 6 16 10 35 10 19 0 35 -4 35 -10z m120 0 c0 -5 -11 -10 -25 -10 -14 0 -25 5 -25 10 0 6 11 10 25 10 14 0 25 -4 25 -10z m-120 -40 c11 -11 26 -20 33 -20 7 0 20 9 30 20 20 24 40 25 61 4 20 -20 20 -38 0 -58 -21 -21 -37 -20 -59 4 -23 25 -40 25 -66 -1 -24 -24 -46 -22 -65 6 -12 18 -11 24 2 43 19 27 38 28 64 2z m-209 -83 c-1 -12 -15 -9 -19 4 -3 6 1 10 8 8 6 -3 11 -8 11 -12z m129 -13 c0 -8 -7 -14 -15 -14 -15 0 -21 21 -9 33 10 9 24 -2 24 -19z m130 6 c0 -11 -7 -20 -15 -20 -8 0 -15 9 -15 20 0 11 7 20 15 20 8 0 15 -9 15 -20z"/> <path d="M2164 1825 c-8 -11 -19 -21 -24 -21 -6 -1 -14 -2 -19 -3 -5 0 -11 -14 -14 -30 -3 -16 -13 -36 -22 -44 -8 -9 -15 -22 -15 -29 1 -8 6 -6 15 6 8 11 17 17 20 14 9 -9 -14 -58 -30 -64 -31 -12 -14 -24 25 -18 27 4 40 3 40 -5 0 -6 5 -11 10 -11 6 0 10 23 10 50 0 38 -4 50 -15 50 -12 0 -13 -4 -4 -19 17 -26 4 -51 -26 -51 -15 0 -24 4 -20 10 3 6 12 10 20 10 20 0 30 21 14 30 -10 7 -9 16 6 49 10 23 24 41 31 41 7 0 10 8 7 20 -5 18 0 20 55 20 l60 0 4 -67 c5 -82 2 -90 -25 -100 -38 -12 -46 -12 -58 4 -10 11 -10 19 -1 34 10 16 9 19 -3 19 -12 0 -15 -12 -14 -52 0 -29 3 -47 6 -40 2 6 17 12 31 11 15 0 21 -3 15 -6 -7 -2 -13 -10 -13 -18 0 -7 -7 -18 -15 -25 -18 -15 -21 -45 -3 -34 6 4 8 3 5 -4 -10 -15 1 -39 18 -39 8 0 13 3 13 6 -2 10 36 71 45 71 6 0 12 -33 8 -54 -1 -5 6 -17 15 -27 16 -18 16 -20 -1 -39 -18 -20 -14 -50 7 -50 18 0 39 15 37 26 -3 20 2 44 10 44 4 0 6 -12 3 -26 -3 -19 -1 -25 7 -20 16 10 14 55 -4 72 -8 9 -15 12 -15 7 0 -5 -9 -9 -21 -10 -16 -2 -20 3 -17 24 4 36 32 52 59 35 15 -10 24 -11 32 -3 6 6 21 11 34 11 13 0 23 4 23 8 0 10 36 9 46 -1 11 -11 54 -8 54 3 0 6 -8 10 -17 10 -10 0 -25 5 -33 10 -13 8 -13 11 -1 19 11 7 9 11 -8 20 -15 9 -21 21 -21 47 0 34 0 35 41 32 22 -1 44 -8 48 -16 6 -10 10 -11 15 -3 11 18 44 13 59 -9 14 -20 14 -20 31 -1 21 23 17 26 -54 40 -69 13 -137 17 -147 8 -4 -4 -6 -22 -5 -40 2 -28 -1 -32 -25 -34 -16 0 -31 4 -35 10 -6 9 -8 9 -8 0 0 -7 -6 -13 -14 -13 -9 0 -12 -8 -9 -24 4 -18 0 -25 -19 -29 -12 -4 -25 -6 -27 -6 -2 0 -8 -5 -12 -13 -6 -9 -9 -9 -9 -1 0 6 7 18 15 26 11 11 11 16 2 20 -22 8 -32 7 -32 -3 0 -6 -5 -14 -11 -18 -6 -4 -16 -17 -23 -29 -6 -13 -18 -23 -26 -23 -19 0 -19 14 0 30 8 6 17 21 21 33 4 11 16 29 28 38 17 14 21 28 21 82 0 64 1 66 28 70 30 4 45 -12 32 -33 -5 -8 -13 -6 -26 6 -10 9 -19 12 -19 7 0 -17 26 -34 44 -27 9 3 16 11 16 18 0 8 2 8 8 0 4 -7 15 -8 27 -3 11 4 14 8 8 8 -7 1 -12 4 -12 9 5 28 -5 31 -122 34 -112 3 -123 1 -135 -17z m320 -181 c3 -8 2 -14 -3 -14 -5 0 -11 -10 -14 -22 -5 -17 -9 -19 -21 -9 -10 9 -15 9 -18 1 -2 -7 -17 -10 -33 -8 l-30 3 40 21 c22 12 41 26 41 32 2 20 4 22 18 16 8 -3 17 -12 20 -20z"/> <path d="M2695 1840 c-150 -3 -243 -8 -232 -14 9 -4 78 -6 152 -4 91 3 136 1 139 -6 3 -7 5 -6 5 2 1 9 26 12 91 12 l89 0 4 -62 3 -63 2 67 c2 54 5 67 20 71 13 4 13 4 -3 4 -11 -1 -132 -4 -270 -7z"/> <path d="M2884 1803 c-10 -16 -13 -16 -29 -3 -16 13 -17 12 -13 -5 2 -13 10 -19 23 -17 25 5 38 17 34 31 -2 6 -9 4 -15 -6z"/> <path d="M2974 1660 c0 -91 2 -128 3 -82 2 45 2 119 0 165 -1 45 -3 8 -3 -83z"/> <path d="M111 1792 c-1 -26 25 -40 42 -23 8 8 6 11 -10 11 -12 0 -24 8 -26 18 -4 12 -5 11 -6 -6z"/> <path d="M1190 1793 c0 -13 5 -23 10 -23 13 0 13 11 0 30 -8 12 -10 11 -10 -7z"/> <path d="M1430 1795 c0 -9 6 -12 15 -9 8 4 15 10 15 15 0 5 -7 9 -15 9 -8 0 -15 -7 -15 -15z"/> <path d="M1830 1798 c0 -9 7 -19 16 -22 17 -7 44 9 44 26 0 5 -8 2 -17 -7 -16 -16 -17 -16 -30 1 -11 15 -13 15 -13 2z"/> <path d="M1982 1799 c2 -6 8 -10 13 -10 5 0 11 4 13 10 2 6 -4 11 -13 11 -9 0 -15 -5 -13 -11z"/> <path d="M2057 1795 c2 -7 10 -12 17 -12 7 0 13 5 13 12 0 6 -8 11 -18 11 -9 0 -15 -5 -12 -11z"/> <path d="M2201 1797 c-1 -23 25 -33 44 -17 19 16 19 27 0 27 -8 0 -12 -4 -9 -9 3 -4 -1 -8 -10 -8 -8 0 -17 6 -19 13 -3 7 -6 5 -6 -6z"/> <path d="M2535 1780 c28 -12 37 -12 30 0 -3 6 -16 10 -28 9 -21 0 -21 -1 -2 -9z"/> <path d="M27 1673 c-4 -59 -10 -139 -13 -178 -7 -71 2 -87 12 -24 10 58 21 294 14 302 -4 4 -10 -41 -13 -100z"/> <path d="M2413 1748 c-47 -30 -50 -35 -38 -52 13 -17 15 -17 29 -3 9 9 16 22 16 31 0 18 13 27 60 42 31 11 32 12 10 13 -14 1 -49 -14 -77 -31z"/> <path d="M1113 1759 c-10 -3 -22 -4 -27 -1 -5 3 -6 0 -2 -6 9 -14 60 -11 74 5 9 9 7 11 -7 10 -11 0 -28 -4 -38 -8z"/> <path d="M1590 1759 c-28 -5 -23 -7 28 -8 34 0 62 1 62 3 0 8 -56 11 -90 5z"/> <path d="M402 1738 c-18 -18 -15 -24 15 -23 14 0 28 -6 30 -12 3 -7 -2 -13 -11 -13 -8 0 -17 -4 -21 -10 -8 -13 21 -80 35 -80 6 0 8 5 5 10 -3 6 -1 10 5 10 6 0 9 4 6 9 -3 5 1 14 9 21 16 13 21 45 6 36 -5 -3 -12 1 -15 10 -9 23 -8 26 7 18 6 -4 3 2 -7 14 -21 24 -46 28 -64 10z"/> <path d="M1239 1736 c6 -7 8 -16 4 -19 -3 -4 3 -7 15 -7 29 0 28 12 -4 27 -21 10 -23 9 -15 -1z"/> <path d="M2860 1739 c0 -5 14 -9 30 -9 17 0 30 4 30 8 0 5 -13 9 -30 10 -16 0 -30 -4 -30 -9z"/> <path d="M145 1732 c-24 -5 -45 -21 -45 -35 0 -5 8 -3 18 6 23 21 61 22 69 2 5 -14 7 -14 23 0 40 36 94 -1 72 -49 -11 -26 -52 -37 -52 -15 0 5 -5 7 -12 3 -7 -4 -8 -3 -4 4 11 18 -19 15 -34 -3 -18 -22 -46 -18 -64 7 -18 25 -21 17 -6 -13 6 -10 16 -19 23 -19 22 0 33 -34 33 -102 -1 -51 3 -69 14 -73 10 -4 11 -8 3 -13 -8 -5 -9 -19 -3 -47 11 -50 7 -54 -16 -16 -10 17 -22 31 -27 31 -5 0 -2 -11 7 -25 9 -13 16 -34 16 -46 0 -17 -5 -20 -24 -17 -24 5 -24 4 -9 -19 8 -12 24 -23 34 -23 11 0 19 -4 19 -10 0 -15 -47 -12 -53 3 -4 9 -8 8 -16 -3 -20 -27 -24 -62 -12 -96 9 -26 9 -42 0 -72 -9 -32 -9 -45 3 -68 12 -25 11 -35 -1 -71 -13 -36 -13 -45 -1 -68 11 -21 11 -32 2 -59 -16 -44 -15 -52 11 -89 25 -36 55 -41 85 -14 17 16 24 17 44 7 37 -20 58 -42 58 -62 0 -17 -8 -19 -100 -17 -56 1 -104 -1 -107 -5 -7 -7 26 -9 125 -6 47 1 72 -2 72 -9 0 -7 -15 -11 -32 -10 -18 0 -68 -2 -110 -5 -69 -5 -78 -4 -79 12 0 14 -2 14 -9 -3 -5 -11 -9 -14 -9 -7 -1 6 -5 12 -11 12 -18 0 -10 -54 15 -100 l24 -45 1 58 0 57 31 0 c26 0 29 -3 20 -14 -9 -11 -8 -17 4 -30 19 -19 45 -10 45 16 0 12 -4 17 -12 12 -7 -4 -8 -3 -4 4 5 8 41 12 102 12 52 0 94 2 94 4 0 2 -11 28 -25 58 -14 29 -25 60 -25 70 0 11 -6 15 -18 11 -10 -2 -26 5 -37 17 -18 20 -18 21 3 50 23 30 20 53 -11 93 -19 23 -35 22 -56 -5 -33 -40 -95 -3 -71 43 13 24 65 26 78 3 5 -9 18 -14 28 -12 15 3 19 12 17 43 -3 59 -23 233 -34 285 -5 25 -11 108 -14 184 -3 77 -10 144 -15 151 -11 14 35 39 52 29 6 -4 27 -10 47 -15 31 -7 33 -6 18 5 -14 11 -15 15 -4 24 17 14 11 67 -9 83 -14 12 -100 18 -139 11z m36 -502 c28 -16 25 -58 -6 -72 -21 -9 -28 -8 -45 7 -25 22 -26 51 -2 64 22 13 29 13 53 1z m11 -150 c7 -11 20 -20 28 -21 9 0 6 -4 -7 -9 -13 -5 -23 -14 -23 -20 0 -19 -59 -11 -70 10 -15 28 4 60 35 60 14 0 30 -9 37 -20z m-17 -91 c-7 -11 -35 -12 -35 -1 0 4 9 8 20 9 11 1 18 -2 15 -8z m65 -135 c0 -8 -7 -14 -15 -14 -8 0 -15 9 -15 20 0 13 5 18 15 14 8 -4 15 -12 15 -20z m-50 -4 c0 -5 -13 -10 -30 -10 -16 0 -30 5 -30 10 0 6 14 10 30 10 17 0 30 -4 30 -10z m-2 -32 c16 -16 15 -53 -3 -68 -19 -16 -45 -10 -61 15 -26 39 31 86 64 53z"/> <path d="M1184 1729 c-9 -15 5 -27 26 -22 11 3 20 9 20 13 0 12 -39 19 -46 9z"/> <path d="M516 1715 c-11 -8 -15 -15 -9 -15 7 0 15 5 18 10 9 15 51 12 65 -5 11 -13 15 -13 21 -3 17 27 -63 37 -95 13z"/> <path d="M2716 1705 c-9 -7 -16 -21 -14 -31 2 -9 -3 -19 -9 -21 -7 -3 -13 0 -13 6 0 26 -15 8 -16 -20 -2 -40 -18 -57 -39 -39 -8 7 -15 19 -15 28 0 8 -10 23 -22 33 -23 21 -38 18 -19 -4 6 -8 8 -22 5 -31 -8 -22 22 -55 45 -49 9 2 23 -3 30 -11 12 -14 16 -14 41 1 34 20 71 12 85 -19 6 -13 16 -22 23 -20 7 1 12 -3 12 -10 0 -6 9 -22 21 -34 28 -30 59 -21 59 17 0 16 -5 29 -11 29 -5 0 -7 5 -3 12 4 7 3 8 -4 4 -7 -4 -12 -16 -12 -27 0 -11 5 -17 10 -14 6 3 10 2 10 -3 0 -6 -7 -12 -15 -16 -15 -6 -20 14 -16 63 2 22 1 22 -14 7 -36 -35 -60 -12 -64 62 -1 33 1 42 11 36 10 -5 11 -4 1 7 -7 7 -13 17 -13 21 0 11 53 -14 66 -31 6 -8 16 -11 23 -7 9 6 10 0 5 -21 -7 -25 -6 -27 9 -14 10 7 17 19 17 27 0 7 9 19 20 27 19 14 18 15 -22 20 -57 8 -100 16 -118 24 -27 11 -36 11 -54 -2z m34 -54 c0 -55 -16 -74 -37 -46 -10 15 -10 20 0 27 9 6 9 8 -2 8 -11 0 -10 4 3 19 10 11 15 25 11 30 -3 6 1 11 9 11 12 0 16 -11 16 -49z m-69 -64 c-8 -8 -11 -7 -11 4 0 20 13 34 18 19 3 -7 -1 -17 -7 -23z"/> <path d="M2220 1695 c-10 -12 -9 -16 5 -21 23 -9 40 10 22 25 -11 9 -17 8 -27 -4z"/> <path d="M132 1684 c2 -11 11 -20 22 -22 13 -3 17 1 14 14 -2 11 -11 20 -22 22 -13 3 -17 -1 -14 -14z"/> <path d="M225 1691 c-8 -15 3 -31 21 -31 9 0 14 7 12 17 -4 20 -24 28 -33 14z"/> <path d="M536 1692 c-2 -4 -1 -14 4 -21 11 -19 41 -6 34 14 -6 16 -29 20 -38 7z"/> <path d="M630 1685 c0 -8 9 -19 19 -25 16 -8 19 -7 16 8 -2 9 -4 20 -4 25 -2 14 -31 7 -31 -8z"/> <path d="M720 1680 c0 -15 5 -20 18 -18 9 2 17 10 17 18 0 8 -8 16 -17 18 -13 2 -18 -3 -18 -18z"/> <path d="M812 1683 c4 -21 33 -25 33 -3 0 8 -8 16 -18 18 -14 3 -18 -1 -15 -15z"/> <path d="M902 1683 c4 -21 33 -25 33 -3 0 8 -8 16 -18 18 -14 3 -18 -1 -15 -15z"/> <path d="M1063 1690 c-15 -6 -23 -18 -23 -32 0 -16 -3 -19 -9 -10 -5 9 -8 0 -7 -24 1 -20 6 -39 12 -41 15 -5 38 42 31 66 -3 11 -2 20 2 19 23 -3 102 6 83 9 -12 2 -20 9 -17 14 8 11 -43 11 -72 -1z"/> <path d="M2333 1685 c-13 -14 -7 -25 14 -25 14 0 18 26 6 33 -5 3 -13 -1 -20 -8z"/> <path d="M2514 1689 c-10 -17 13 -36 27 -22 12 12 4 33 -11 33 -5 0 -12 -5 -16 -11z"/> <path d="M2607 1685 c-8 -18 11 -31 25 -17 11 11 3 32 -12 32 -4 0 -10 -7 -13 -15z"/> <path d="M2942 1565 c-3 -136 -3 -139 -19 -105 -9 21 -17 30 -20 22 -3 -8 0 -19 6 -25 6 -6 11 -19 11 -29 0 -9 17 -29 37 -42 36 -25 58 -27 35 -4 -7 7 -12 34 -12 62 0 54 -8 59 -12 8 -1 -17 -6 -28 -10 -24 -4 4 -9 68 -11 142 l-3 135 -2 -140z"/> <path d="M1188 1374 c2 -249 0 -310 -11 -323 -18 -21 -30 -51 -32 -78 -1 -28 -1 -28 25 -1 l20 22 0 -77 c0 -46 4 -77 10 -77 6 0 8 11 4 25 -7 27 12 59 28 49 5 -3 4 -11 -2 -19 -18 -22 -3 -37 23 -23 12 7 29 11 39 10 9 -2 19 2 23 8 3 5 1 10 -4 10 -23 0 -27 2 -46 19 -11 10 -28 21 -37 24 -27 9 -22 46 7 59 21 10 27 8 39 -7 13 -18 14 -18 25 3 15 28 14 33 -6 30 -14 -2 -17 3 -15 27 3 29 3 29 -42 -20 -25 -28 -46 -46 -46 -41 0 5 -6 3 -14 -3 -27 -23 -25 6 3 40 15 19 31 51 35 72 5 25 11 35 19 31 7 -4 2 3 -10 15 -25 23 -29 46 -12 56 6 4 7 19 4 36 -11 48 2 69 41 69 21 0 33 4 29 10 -3 6 -1 10 4 10 6 0 11 5 11 10 0 15 -33 12 -56 -5 -22 -17 -34 -19 -34 -6 0 5 19 18 42 30 39 19 43 19 61 4 15 -14 22 -15 38 -5 19 12 20 9 18 -165 -1 -98 -5 -167 -8 -153 -4 14 -10 20 -13 15 -3 -6 -2 -21 3 -34 7 -17 13 -21 22 -13 9 8 11 78 7 304 -3 203 -6 261 -10 188 -4 -88 -7 -102 -17 -85 -7 11 -13 17 -13 12 0 -4 6 -16 12 -27 19 -29 -4 -50 -30 -27 -24 22 -61 22 -78 0 -12 -17 -14 -17 -30 -1 -13 13 -15 20 -6 30 7 9 8 33 3 71 -5 38 -4 58 3 61 7 3 6 5 -1 5 -19 1 -16 19 5 24 16 4 16 5 0 6 -10 0 -18 7 -18 15 0 8 8 17 18 19 16 4 16 5 0 6 -22 1 -23 17 -2 25 22 8 24 8 24 -7 0 -7 7 -22 15 -33 11 -13 14 -14 13 -4 -2 10 7 16 24 18 20 2 30 10 34 28 9 34 44 33 44 -2 0 -14 4 -23 10 -19 6 3 10 0 10 -8 0 -8 10 -27 22 -42 18 -23 26 -26 56 -21 43 6 79 39 87 77 6 27 25 41 25 19 0 -6 29 -10 67 -10 94 0 68 17 -39 26 -83 6 -88 6 -88 -13 0 -26 -19 -43 -50 -43 -32 0 -50 17 -50 48 0 23 -1 23 -105 21 -58 -1 -109 1 -112 5 -4 3 -9 6 -12 6 -3 0 -5 -138 -3 -306z m107 277 c3 -5 0 -13 -6 -17 -8 -4 -9 -3 -5 4 4 7 1 12 -8 12 -9 0 -16 -5 -16 -12 0 -6 -3 -9 -6 -5 -9 9 5 27 21 27 8 0 16 -4 20 -9z"/> <path d="M497 1648 c-3 -9 5 -13 24 -13 26 0 27 1 12 13 -9 6 -20 12 -24 12 -4 0 -9 -6 -12 -12z"/> <path d="M1121 1646 c-6 -7 -9 -21 -5 -30 6 -17 39 -22 48 -8 3 5 -4 8 -16 8 -12 -1 -23 6 -26 14 -4 12 -3 13 10 3 16 -14 28 -8 28 14 0 17 -24 17 -39 -1z"/> <path d="M1734 1619 c13 -19 11 -26 -32 -85 -26 -35 -52 -64 -59 -64 -16 0 -17 12 -1 28 9 9 9 12 0 12 -16 0 -35 -37 -22 -45 6 -4 8 -11 5 -16 -4 -5 -2 -9 4 -9 5 0 -6 -37 -24 -82 -19 -49 -38 -120 -45 -171 -12 -85 -10 -109 16 -195 2 -7 -1 -10 -6 -7 -6 3 -10 0 -10 -7 -1 -17 -40 30 -40 48 0 8 -11 14 -27 15 l-28 1 28 10 c34 12 46 52 25 87 -27 48 -90 21 -92 -41 -1 -18 -3 -35 -7 -38 -19 -18 -50 -83 -45 -97 4 -8 1 -22 -5 -29 -11 -14 -5 -34 12 -34 5 0 9 17 9 38 0 24 3 32 9 24 6 -9 21 -12 45 -9 26 3 36 1 36 -8 0 -8 -8 -16 -17 -18 -17 -4 -17 -5 0 -6 9 0 17 -5 17 -10 0 -6 -12 -6 -30 -1 -17 5 -32 5 -35 0 -3 -5 9 -10 27 -12 48 -4 44 -32 -4 -36 -21 -2 -38 -7 -38 -12 0 -13 121 -135 148 -149 18 -10 22 -9 22 4 0 9 9 15 25 15 20 0 25 -5 25 -25 0 -26 13 -31 70 -26 48 4 39 17 -10 15 -37 -2 -50 2 -50 12 0 10 14 14 50 14 53 0 67 15 25 26 -14 3 -23 10 -20 14 3 4 -11 4 -30 0 -20 -4 -33 -4 -29 1 3 5 0 17 -5 26 -8 14 -10 15 -11 3 0 -16 -63 -41 -78 -31 -19 12 -19 37 0 58 l20 22 -21 -6 c-11 -3 -21 -1 -21 5 0 7 -9 7 -29 -1 -16 -6 -36 -7 -47 -2 -17 8 -16 9 8 13 37 5 59 37 48 68 -6 15 -6 24 0 24 6 0 10 -4 10 -10 0 -6 9 -5 24 1 27 13 86 -6 86 -27 0 -21 39 -57 55 -50 10 3 15 1 13 -7 -3 -14 23 -57 34 -57 5 0 8 7 8 15 0 8 4 15 9 15 5 0 7 9 4 20 -5 17 0 20 26 20 17 0 31 -4 31 -10 0 -5 -5 -10 -12 -10 -9 0 -9 -3 0 -12 17 -17 15 -58 -4 -65 -9 -3 -25 -1 -35 6 -23 14 -24 9 -4 -28 8 -16 11 -31 8 -35 -4 -3 -1 -6 5 -6 6 0 17 10 23 23 6 12 19 30 28 40 9 11 14 31 12 48 -3 38 14 59 48 59 63 0 68 -56 10 -118 -22 -23 -44 -40 -49 -37 -5 3 -12 0 -16 -6 -4 -8 -3 -9 4 -5 7 4 12 5 12 3 0 -3 -24 -17 -52 -32 -97 -51 -202 -33 -293 50 -21 19 -41 35 -46 35 -5 0 -9 5 -9 11 0 5 -15 28 -32 50 -29 36 -36 40 -63 34 -16 -4 -50 -11 -75 -15 -25 -4 -90 -20 -145 -35 -136 -37 -176 -44 -276 -44 -91 -1 -162 15 -137 30 8 6 9 9 1 9 -6 0 -19 3 -29 7 -11 4 -15 3 -11 -4 4 -6 1 -13 -5 -16 -7 -2 2 -7 20 -11 18 -4 30 -12 26 -17 -10 -17 -33 -9 -63 20 -16 16 -58 42 -93 59 -35 17 -70 37 -78 47 -9 11 -15 13 -20 4 -4 -6 1 -20 11 -30 22 -22 25 -43 7 -37 -19 6 -78 108 -78 134 0 12 -6 27 -14 33 -8 6 -24 38 -36 71 -12 33 -27 60 -32 60 -5 0 -16 16 -24 35 -8 19 -16 35 -19 35 -7 0 8 -75 17 -78 10 -4 38 -56 38 -72 0 -5 -9 -10 -20 -10 -23 0 -23 0 -10 -34 5 -14 16 -26 24 -26 7 0 16 -6 19 -14 3 -8 16 -16 29 -19 20 -4 20 -5 3 -6 -11 -1 -28 -12 -37 -25 -20 -27 -19 -33 47 -206 33 -84 33 -84 71 -87 20 -1 45 2 53 7 14 8 14 9 -1 10 -23 0 -23 17 -1 23 10 3 -2 5 -26 6 -29 1 -48 7 -57 19 -20 26 -17 42 9 42 13 0 28 5 35 12 9 9 15 8 25 -7 13 -16 13 -15 9 16 l-5 34 30 -31 30 -31 39 23 c30 19 41 21 53 11 9 -8 59 -12 142 -13 71 -1 140 -5 153 -8 14 -3 28 -2 31 4 13 21 26 9 20 -19 -4 -20 -2 -30 8 -34 16 -6 27 19 27 65 0 23 6 27 50 38 64 15 73 12 74 -33 l1 -38 -94 -30 -93 -30 -19 22 c-14 17 -19 18 -19 7 0 -9 8 -19 18 -23 21 -9 -25 -23 -207 -61 -102 -22 -125 -24 -132 -13 -21 33 -10 38 94 42 89 3 86 4 -20 2 -92 -1 -124 2 -127 12 -3 7 -10 13 -16 13 -6 0 1 -17 15 -37 27 -41 31 -53 14 -53 -5 0 -8 4 -5 9 3 4 -3 16 -13 25 -16 14 -20 15 -30 2 -10 -11 -8 -17 9 -29 20 -14 18 -15 -29 -21 -48 -6 -50 -8 -40 -29 10 -23 11 -23 76 -10 36 8 68 12 70 9 2 -2 5 -16 7 -31 2 -15 9 -30 16 -35 7 -4 13 -18 14 -31 l1 -24 125 3 c352 9 383 11 394 22 8 10 5 11 -15 7 -51 -12 -430 -9 -445 4 -8 6 -14 8 -14 3 -1 -10 -49 77 -50 89 0 4 8 7 18 7 9 0 100 21 202 46 178 44 204 47 269 28 17 -5 22 -4 17 4 -5 9 47 12 206 12 177 -1 209 -3 190 -13 l-23 -13 30 -26 29 -27 7 26 c3 14 1 31 -6 39 -10 12 45 14 382 14 l394 0 -40 25 c-39 24 -44 25 -158 19 l-118 -7 7 29 7 29 -21 -25 -21 -25 -1 23 c0 13 -4 21 -9 18 -5 -3 -7 -15 -4 -26 4 -15 0 -20 -16 -20 -20 0 -21 5 -21 103 l0 102 -51 33 c-54 36 -74 37 -40 3 17 -17 18 -21 5 -21 -22 0 -42 22 -46 51 -3 22 -7 24 -45 21 -29 -3 -43 0 -43 8 0 8 10 11 25 8 14 -3 25 -2 24 1 -1 11 -59 53 -59 43 0 -6 6 -13 13 -15 6 -3 0 -6 -15 -6 -19 -1 -28 4 -28 14 0 8 -7 15 -16 15 -10 0 -14 -6 -11 -14 3 -7 0 -19 -6 -25 -8 -8 -5 -11 10 -11 12 0 25 -4 28 -10 3 -5 2 -10 -3 -10 -6 0 -5 -10 1 -24 8 -16 14 -21 19 -13 5 8 8 4 8 -9 0 -11 4 -24 10 -30 5 -5 6 -15 0 -23 -12 -20 -41 4 -33 26 5 13 3 13 -15 2 -17 -10 -23 -10 -36 0 -19 16 -21 42 -4 59 10 10 -2 12 -55 10 -44 -2 -67 1 -67 8 0 7 19 12 47 12 25 1 51 6 57 12 7 7 5 10 -4 10 -13 0 -13 2 -1 9 13 8 12 17 -2 61 -9 29 -17 70 -17 92 0 50 39 168 56 168 6 0 15 7 18 16 9 24 7 31 -5 14 -24 -33 2 41 32 92 61 104 75 118 123 118 32 0 48 6 66 25 13 14 28 25 33 25 5 0 6 -65 3 -157 -4 -87 -7 -191 -7 -230 -1 -71 -11 -93 -24 -53 -3 11 -14 20 -23 20 -13 0 -13 -3 4 -16 10 -8 13 -13 7 -9 -16 8 -17 -7 -2 -22 6 -6 8 -21 4 -33 -5 -16 -13 -20 -33 -18 -32 4 -42 37 -17 58 19 16 20 31 0 23 -21 -7 -45 -56 -45 -88 l0 -27 -26 31 c-14 17 -31 31 -38 31 -16 0 -39 48 -29 62 4 8 0 9 -11 5 -10 -4 -24 -7 -31 -7 -7 0 -18 -14 -24 -31 -14 -42 -14 -49 3 -43 8 3 12 13 9 24 -6 23 14 35 33 19 10 -8 11 -16 5 -22 -15 -15 13 -36 45 -34 26 2 29 -1 32 -33 5 -45 22 -68 34 -46 10 18 34 21 43 6 4 -6 1 -17 -5 -25 -11 -13 -6 -15 34 -15 44 0 51 -5 47 -36 -1 -6 8 -19 19 -29 20 -18 20 -18 20 137 0 85 -3 250 -7 366 l-6 211 -24 6 c-15 3 -30 0 -39 -10 -9 -8 -20 -15 -26 -15 -6 0 -21 -8 -32 -17 -12 -10 -8 -4 7 13 33 37 25 44 -49 44 -44 0 -45 -1 -30 -21z m42 -41 c-65 -76 -107 -144 -146 -240 -42 -99 -53 -108 -21 -17 38 112 156 299 188 299 11 0 5 -12 -21 -42z m-282 -434 c22 -8 20 -53 -1 -61 -10 -4 -25 -16 -34 -26 -14 -18 -15 -16 -14 28 1 28 7 50 16 56 17 11 14 10 33 3z m416 -88 c-13 -36 -34 -34 -26 2 4 15 7 36 7 46 0 18 1 18 15 -2 10 -15 12 -27 4 -46z m-40 -6 c0 -5 -12 -10 -27 -9 l-28 1 25 8 c14 4 26 8 28 9 1 1 2 -3 2 -9z m-418 -55 c4 -21 1 -25 -18 -25 -15 0 -24 6 -24 15 0 8 -6 15 -12 15 -19 0 14 20 33 20 10 0 19 -10 21 -25z m57 11 c9 -10 8 -16 -4 -26 -19 -16 -41 1 -32 24 8 20 21 20 36 2z m394 3 c-13 -4 -23 -14 -23 -20 0 -8 -4 -9 -13 0 -8 6 -18 7 -23 3 -4 -4 -3 0 4 9 6 9 27 16 44 17 29 0 30 -1 11 -9z m-115 -111 c2 -19 -2 -28 -18 -33 -24 -8 -50 10 -50 35 0 24 10 31 40 28 19 -2 26 -10 28 -30z m-1410 5 c0 -5 2 -16 7 -27 8 -18 -7 -36 -32 -36 -18 0 -16 21 3 48 15 22 25 29 22 15z m1002 -174 l0 -67 -38 2 c-20 1 -42 5 -49 9 -6 4 -15 2 -18 -4 -4 -5 -14 -8 -22 -5 -11 4 -13 2 -9 -9 3 -10 -1 -15 -13 -15 -10 0 -21 9 -24 20 -4 16 3 25 33 40 21 11 42 25 45 31 4 6 -7 3 -25 -6 -44 -23 -162 -67 -166 -62 -5 5 184 80 211 84 11 2 25 4 31 5 7 1 7 8 0 25 -7 15 -17 22 -28 19 -25 -6 -22 9 4 26 20 13 24 13 45 -5 20 -18 23 -30 23 -88z m-945 71 c20 -38 19 -47 -6 -55 -22 -7 -59 18 -59 41 0 14 27 44 40 44 5 0 16 -13 25 -30z m125 5 c37 -19 37 -30 5 -51 -24 -16 -27 -16 -45 1 -27 25 -26 65 2 65 5 0 22 -7 38 -15z m714 -1 c23 -22 20 -37 -10 -51 -18 -8 -32 -9 -45 -3 -21 12 -39 13 -22 2 17 -11 1 -31 -27 -34 -23 -3 -25 0 -24 36 0 31 5 41 22 47 14 5 22 4 22 -2 0 -6 7 -3 16 5 8 9 24 16 34 16 10 0 26 -7 34 -16z m210 -9 c3 -8 2 -15 -3 -15 -5 0 -14 7 -21 15 -10 12 -10 15 3 15 8 0 17 -7 21 -15z m-71 -74 c1 -16 8 -21 30 -21 26 0 29 -3 25 -25 -4 -19 -1 -25 12 -25 10 0 20 -7 24 -15 3 -9 0 -15 -10 -15 -8 0 -12 5 -9 10 7 11 4 11 -125 12 l-85 1 75 7 c41 3 67 7 58 8 -15 2 -18 12 -18 54 0 36 3 49 11 41 5 -5 11 -20 12 -32z m497 -37 c-8 -21 -15 -25 -42 -22 -18 2 -31 7 -28 13 3 5 13 8 23 7 19 -4 24 14 5 21 -9 3 -5 12 12 26 l24 22 8 -21 c4 -11 3 -32 -2 -46z m-710 -23 c0 -5 -10 -11 -22 -14 -13 -3 -40 -10 -62 -16 -47 -12 -35 3 19 23 47 17 65 19 65 7z m-135 -11 c-11 -5 -27 -9 -35 -9 -9 0 -8 4 5 9 11 5 27 9 35 9 9 0 8 -4 -5 -9z m833 -7 c-15 -2 -42 -2 -60 0 -18 2 -6 4 27 4 33 0 48 -2 33 -4z m-889 -7 c-8 -7 -201 -57 -205 -53 -3 2 37 16 88 30 88 24 126 32 117 23z m-424 -106 c-16 -4 -43 -8 -60 -8 -25 -1 -27 1 -10 8 11 5 38 8 60 8 38 0 39 -1 10 -8z"/> <path d="M1742 898 c6 -18 28 -21 28 -4 0 9 -7 16 -16 16 -9 0 -14 -5 -12 -12z"/> <path d="M1306 713 c-9 -22 -8 -22 22 -18 15 2 31 4 35 4 17 2 -4 19 -27 23 -16 3 -27 0 -30 -9z"/> <path d="M1227 794 c-13 -13 -7 -24 14 -24 11 0 19 5 17 12 -5 14 -22 21 -31 12z"/> <path d="M2902 1628 c2 -6 10 -14 16 -16 7 -2 10 2 6 12 -7 18 -28 22 -22 4z"/> <path d="M351 1571 c-25 -59 -25 -62 -7 -55 8 3 17 22 21 42 4 20 11 43 17 50 7 8 7 12 0 12 -5 0 -19 -22 -31 -49z"/> <path d="M1622 1608 c-7 -7 -12 -20 -12 -31 0 -15 6 -18 33 -15 25 2 32 8 33 26 2 20 1 20 -3 2 -3 -15 -11 -20 -25 -18 -30 4 -34 26 -6 37 13 6 17 10 8 10 -9 1 -21 -4 -28 -11z"/> <path d="M1968 1613 c22 -4 23 -6 7 -29 -12 -18 -13 -29 -5 -44 7 -14 7 -20 0 -20 -5 0 -10 -4 -10 -8 0 -5 17 -9 37 -10 27 -1 34 1 25 10 -8 8 -4 20 13 46 23 34 25 52 4 52 -5 0 -9 -9 -9 -20 0 -11 -7 -20 -15 -20 -18 0 -20 30 -2 31 20 1 -26 18 -48 17 -16 -1 -15 -2 3 -5z"/> <path d="M2076 1575 c-6 -25 4 -58 27 -87 17 -22 41 -24 33 -3 -6 16 2 19 21 7 12 -8 68 -150 62 -157 -2 -2 -24 -6 -49 -9 -34 -5 -41 -4 -30 4 13 9 12 11 -4 8 -11 -2 -21 -9 -24 -17 -4 -11 8 -13 58 -9 50 4 63 1 67 -11 3 -9 9 -25 14 -36 48 -110 49 -116 49 -363 l0 -237 47 -25 c34 -18 59 -24 90 -22 41 4 42 3 49 -32 7 -38 21 -51 83 -72 23 -9 30 -9 22 -1 -6 6 -11 20 -11 30 0 14 -5 18 -20 14 -21 -5 -34 6 -44 41 -7 22 -7 22 98 22 l106 0 0 25 c0 20 -5 24 -22 22 -30 -3 -38 32 -9 40 16 4 21 13 21 39 0 39 -3 41 -39 15 -25 -18 -30 -18 -94 -4 -66 15 -67 16 -67 47 0 44 16 56 75 56 72 0 90 -8 108 -43 15 -28 16 -29 12 -7 -11 70 -16 80 -35 80 -15 0 -20 7 -20 26 0 36 -34 29 -38 -9 -2 -19 -9 -27 -23 -27 -16 0 -19 6 -17 28 2 21 -1 27 -17 27 -14 0 -20 -7 -20 -24 0 -14 -6 -26 -13 -29 -6 -2 -12 -12 -12 -23 0 -12 -7 -19 -20 -19 -13 0 -20 7 -20 20 0 11 -7 20 -15 20 -11 0 -14 7 -9 26 5 20 2 26 -14 31 -34 8 -36 33 -3 33 16 0 31 -7 35 -15 7 -20 35 -19 58 2 16 15 22 15 40 4 18 -11 22 -11 30 3 5 9 22 16 38 16 35 0 40 8 29 38 -12 31 -45 25 -41 -7 2 -19 0 -22 -12 -12 -10 8 -16 9 -21 1 -11 -18 -25 -11 -22 13 1 16 -3 22 -18 22 -14 0 -20 -6 -19 -22 1 -25 -6 -29 -23 -12 -8 8 -13 8 -17 0 -12 -18 -23 -12 -22 12 1 16 -5 22 -19 22 -15 0 -19 -6 -18 -22 2 -13 -1 -23 -6 -23 -14 0 -41 29 -41 44 0 7 -7 21 -15 32 -15 19 -15 19 -10 -1 3 -11 -5 3 -18 30 -14 28 -27 61 -30 75 -4 14 3 4 16 -22 12 -26 25 -48 29 -48 8 0 -11 59 -24 77 -13 16 -15 92 -3 92 6 1 11 -5 11 -12 1 -6 2 -18 3 -24 0 -7 6 -13 12 -13 5 0 7 5 4 11 -4 6 2 13 14 16 12 3 21 11 21 18 0 8 -8 11 -20 8 -14 -4 -20 0 -20 11 0 11 8 15 25 14 14 -1 25 -7 25 -12 0 -5 9 -1 20 9 26 24 74 13 67 -15 -3 -11 -1 -18 4 -14 5 3 9 12 9 20 0 8 5 14 10 14 9 0 11 -7 14 -52 1 -9 5 -20 9 -24 4 -5 5 -1 1 9 -3 9 -2 17 4 17 5 0 12 -9 15 -20 4 -14 0 -20 -11 -21 -11 0 -12 -2 -4 -6 17 -7 15 -18 -5 -39 -17 -17 -17 -18 0 -11 12 4 17 1 17 -9 0 -10 -6 -14 -14 -11 -10 4 -13 1 -9 -9 6 -16 4 -16 -84 -18 -67 -1 -82 -8 -64 -30 9 -11 17 -11 36 -2 14 6 25 14 25 19 0 4 5 7 11 7 5 0 8 -4 5 -9 -9 -14 44 -23 60 -10 10 8 14 8 14 0 0 -6 5 -11 10 -11 6 0 10 9 10 20 0 11 5 20 10 20 6 0 10 15 11 33 0 17 4 41 8 52 10 25 -17 85 -38 85 -12 0 -13 2 -4 8 10 7 10 12 0 26 -11 15 -17 16 -35 7 -28 -15 -33 -14 -26 4 4 8 3 15 0 15 -4 0 -23 -7 -43 -15 -19 -8 -37 -15 -39 -15 -2 0 -4 16 -4 35 l0 36 -24 -18 c-13 -10 -22 -20 -20 -22 2 -2 11 2 20 10 15 12 17 12 12 -1 -2 -8 -21 -19 -41 -24 -34 -9 -37 -13 -38 -45 0 -35 -1 -35 -11 -11 -26 62 -37 97 -40 120 -2 14 -7 29 -13 33 -6 6 -6 10 3 14 18 7 15 24 -5 21 -12 -2 -20 8 -27 32 -5 19 -17 41 -25 48 -9 8 -11 11 -5 8 7 -4 9 4 5 22 -5 25 -6 25 -9 5 -2 -14 -13 -25 -27 -29 -31 -8 -45 2 -45 29 0 16 3 19 9 8 5 -7 14 -10 20 -7 19 12 12 21 -18 23 -23 2 -30 -3 -35 -22z m258 -544 c1 -23 -1 -41 -6 -41 -9 0 -10 5 -13 63 -1 24 1 35 7 29 6 -6 11 -28 12 -51z m49 -108 c16 -42 16 -43 -3 -43 -17 0 -19 5 -14 25 4 18 1 27 -11 31 -19 8 -36 -12 -28 -33 3 -7 0 -13 -6 -13 -6 0 -11 17 -11 39 0 33 4 40 23 43 28 5 30 2 50 -49z m23 -100 c0 -17 6 -38 13 -47 11 -13 10 -17 -10 -25 -49 -18 -99 18 -99 73 0 29 12 36 60 33 32 -2 35 -5 36 -34z m72 -19 c-2 -19 -5 -21 -14 -11 -6 6 -15 25 -19 42 -6 29 -6 29 14 11 11 -10 20 -29 19 -42z m57 -54 c31 0 52 -17 39 -30 -14 -14 -83 -31 -88 -21 -2 3 -6 19 -10 35 -6 26 -5 28 16 22 13 -3 32 -6 43 -6z m-156 -25 c37 -13 41 -12 41 1 0 9 5 14 12 12 13 -5 42 -97 34 -106 -3 -3 -6 2 -6 11 0 13 -13 17 -62 20 -47 2 -57 5 -40 11 12 5 22 12 22 17 0 12 -7 11 -31 -1 -17 -10 -19 -7 -19 20 0 16 2 30 4 30 2 0 22 -7 45 -15z m282 -38 l7 -28 -84 3 c-47 2 -85 7 -85 13 -1 6 12 9 28 7 19 -2 38 4 54 17 34 29 71 23 80 -12z"/> <path d="M2327 806 c-8 -20 20 -43 35 -28 14 14 3 42 -16 42 -7 0 -16 -6 -19 -14z"/> <path d="M817 1583 c-4 -3 -7 -12 -7 -20 0 -15 26 -18 34 -4 7 11 -18 33 -27 24z"/> <path d="M904 1579 c-10 -17 13 -36 27 -22 12 12 4 33 -11 33 -5 0 -12 -5 -16 -11z"/> <path d="M2790 1574 c0 -9 7 -14 17 -12 25 5 28 28 4 28 -12 0 -21 -6 -21 -16z"/> <path d="M2880 1575 c0 -10 7 -15 18 -13 21 4 19 22 -2 26 -10 2 -16 -3 -16 -13z"/> <path d="M256 1564 c-4 -10 -2 -13 6 -8 7 5 8 3 3 -6 -6 -10 -11 -9 -22 5 -12 17 -13 15 -13 -23 0 -31 4 -42 15 -42 8 0 15 -4 15 -10 0 -5 -7 -10 -15 -10 -8 0 -15 -7 -15 -15 0 -24 37 -18 44 8 15 57 0 147 -18 101z"/> <path d="M450 1565 c0 -8 7 -15 15 -15 8 0 15 7 15 15 0 8 -7 15 -15 15 -8 0 -15 -7 -15 -15z"/> <path d="M537 1574 c-9 -10 2 -24 19 -24 8 0 14 7 14 15 0 15 -21 21 -33 9z"/> <path d="M630 1566 c0 -10 9 -16 21 -16 24 0 21 23 -4 28 -10 2 -17 -3 -17 -12z"/> <path d="M720 1565 c0 -10 7 -15 18 -13 21 4 19 22 -2 26 -10 2 -16 -3 -16 -13z"/> <path d="M1100 1567 c29 -14 37 -41 20 -62 -16 -20 -50 -19 -50 1 0 8 -4 12 -10 9 -14 -9 -12 29 2 43 9 9 9 12 0 12 -18 0 -26 -48 -13 -76 13 -29 6 -48 -15 -40 -8 3 -14 2 -14 -3 0 -5 24 -9 53 -9 29 -1 46 2 39 6 -9 6 -6 14 13 30 14 12 25 31 25 42 0 23 -37 60 -59 60 -10 0 -6 -5 9 -13z"/> <path d="M421 1559 c-1 -22 24 -42 46 -36 14 4 13 5 -5 6 -13 1 -26 10 -32 24 -6 15 -9 17 -9 6z"/> <path d="M2565 1551 c3 -11 1 -22 -5 -26 -6 -4 -8 -16 -4 -27 5 -16 3 -20 -9 -15 -8 3 -23 -1 -34 -8 -28 -22 -33 -18 -33 22 0 35 -1 36 -17 20 -16 -16 -15 -19 14 -54 17 -21 38 -37 46 -35 9 1 23 -8 31 -20 12 -17 16 -19 16 -6 0 9 -7 24 -16 33 -9 9 -13 19 -9 23 4 4 10 1 12 -5 3 -7 11 -13 18 -13 7 0 16 -6 19 -12 5 -10 7 -10 12 0 3 6 10 9 15 6 6 -3 22 -7 35 -9 14 -1 33 -10 42 -19 15 -15 15 -16 0 -16 -9 0 -18 6 -20 12 -4 10 -9 9 -21 -3 -12 -13 -13 -19 -4 -29 7 -7 7 -10 1 -7 -6 3 -11 0 -11 -8 0 -20 13 -19 35 3 10 10 24 16 30 14 15 -5 16 20 1 35 -13 13 -1 63 17 63 8 0 11 6 8 15 -4 8 -1 15 5 15 15 0 14 -33 -1 -49 -10 -11 -10 -12 -1 -7 10 5 12 -45 12 -224 0 -199 -2 -230 -15 -230 -12 0 -15 9 -13 34 2 19 -1 40 -7 47 -22 28 -25 39 -11 33 8 -3 20 2 27 11 18 21 -5 51 -27 33 -21 -17 -44 10 -32 40 6 16 17 22 41 23 18 0 27 3 21 6 -7 2 -13 19 -13 38 0 38 -18 57 -52 54 -12 -1 -36 -1 -53 0 -22 1 -26 4 -16 10 12 8 12 12 2 24 -10 13 -8 16 8 22 31 10 27 45 -4 45 -14 0 -25 -5 -25 -11 0 -7 -7 -17 -15 -23 -13 -10 -11 -19 18 -74 18 -34 36 -60 39 -57 3 3 11 -1 18 -10 11 -13 10 -14 -3 -9 -12 4 -14 1 -10 -15 3 -12 9 -21 14 -21 5 0 9 -9 9 -19 0 -11 5 -23 10 -26 6 -3 10 -17 10 -30 0 -37 11 -55 34 -55 19 -1 19 -2 4 -13 -14 -11 -15 -20 -5 -60 11 -50 22 -59 32 -27 11 35 25 21 25 -25 0 -35 -4 -45 -16 -45 -14 0 -15 -7 -10 -37 3 -21 9 -86 13 -145 5 -83 9 -108 20 -108 8 0 11 -4 8 -10 -3 -5 -1 -10 4 -10 6 0 11 5 11 10 0 6 9 10 21 10 11 0 17 -4 14 -10 -3 -5 -1 -10 4 -10 6 0 11 5 11 10 0 6 7 10 15 10 8 0 15 -4 15 -10 0 -5 5 -10 11 -10 5 0 7 5 4 10 -3 6 3 10 15 10 12 0 18 -4 15 -10 -3 -5 -1 -10 4 -10 6 0 11 9 11 20 0 18 -7 20 -80 20 -84 0 -111 16 -37 22 l42 4 -42 8 c-24 5 -40 12 -37 17 2 4 12 6 22 3 13 -5 14 -4 3 4 -8 6 -12 19 -8 32 4 16 2 20 -9 16 -11 -4 -14 10 -13 77 0 45 4 91 8 102 4 11 5 33 0 50 -9 36 -20 501 -12 509 4 3 12 1 20 -5 19 -16 16 2 -5 27 -23 27 -62 49 -62 34 0 -5 -7 -10 -16 -10 -13 0 -14 -3 -5 -13 8 -10 7 -17 -1 -25 -20 -20 -28 -14 -28 23 0 26 3 33 15 29 8 -4 15 -1 15 5 0 6 -6 11 -13 11 -18 0 -61 -37 -48 -42 13 -4 18 -42 6 -45 -5 -2 -10 3 -11 10 -2 26 -5 27 -30 10 l-26 -17 3 57 c3 42 1 57 -9 57 -9 0 -11 -7 -7 -19z m120 -286 c31 -26 31 -31 0 -37 -15 -2 -20 2 -18 16 1 11 -6 26 -15 33 -9 7 -12 12 -7 12 6 0 23 -11 40 -24z"/> <path d="M512 1551 c7 -26 34 -36 60 -23 22 11 22 11 -6 5 -22 -4 -33 -1 -44 13 -8 10 -12 13 -10 5z"/> <path d="M2419 1539 c-8 -15 -8 -19 0 -15 6 4 11 1 11 -6 1 -8 6 -6 15 6 14 19 12 36 -5 36 -5 0 -14 -10 -21 -21z"/> <path d="M2514 1549 c-10 -17 13 -36 27 -22 12 12 4 33 -11 33 -5 0 -12 -5 -16 -11z"/> <path d="M2606 1551 c-3 -5 1 -14 8 -20 16 -13 32 2 21 19 -8 12 -22 13 -29 1z"/> <path d="M116 1535 c4 -8 10 -13 14 -10 5 3 11 -1 13 -7 4 -8 6 -7 6 3 1 9 -6 20 -15 23 -22 9 -24 8 -18 -9z"/> <path d="M1241 1515 c-15 -20 -18 -35 -14 -63 3 -20 8 -39 10 -41 9 -11 38 -9 45 2 6 9 8 8 9 -3 0 -10 3 -8 9 5 8 18 9 18 9 2 2 -33 19 -8 25 38 4 24 11 47 17 50 14 9 11 22 -6 22 -9 0 -14 -6 -11 -13 3 -7 -4 -16 -15 -19 -12 -4 -18 -13 -15 -20 8 -21 -19 -38 -42 -26 -14 7 -18 18 -14 36 3 17 8 23 16 17 6 -5 21 -3 36 4 l24 13 -28 10 c-35 14 -31 15 -55 -14z"/> <path d="M104 1485 c4 -16 12 -34 17 -40 7 -7 8 0 3 20 -3 17 -11 35 -17 40 -6 7 -7 0 -3 -20z"/> <path d="M73 1445 c0 -33 2 -45 4 -27 2 18 2 45 0 60 -2 15 -4 0 -4 -33z"/> <path d="M316 1448 c-4 -29 -8 -70 -10 -90 l-4 -38 235 0 c130 0 234 3 230 6 -3 4 -102 7 -219 8 l-213 1 -1 78 c-2 93 -10 109 -18 35z"/> <path d="M570 1487 c0 -9 -7 -17 -15 -17 -8 0 -15 5 -15 12 0 6 -2 9 -5 6 -9 -9 6 -38 20 -38 15 0 31 38 21 47 -3 4 -6 -1 -6 -10z"/> <path d="M1436 1484 c-22 -21 -24 -76 -5 -100 15 -19 52 -25 45 -8 -3 9 1 14 12 14 38 0 52 80 18 102 -19 13 -54 9 -70 -8z m62 -6 c16 -16 15 -48 0 -52 -7 -3 -25 -7 -41 -10 -26 -6 -27 -5 -21 21 12 50 37 66 62 41z"/> <path d="M1797 1482 c-19 -20 -24 -108 -7 -97 6 3 10 1 10 -4 0 -6 9 -11 21 -11 11 0 17 5 14 10 -3 6 0 10 8 10 20 0 47 33 47 58 0 23 -25 52 -43 52 -7 0 -4 -7 6 -14 27 -21 21 -52 -15 -70 -17 -9 -32 -16 -32 -16 -8 0 5 75 13 78 13 4 15 22 3 22 -5 0 -16 -8 -25 -18z"/> <path d="M2044 1455 c-4 -9 -2 -21 4 -27 15 -15 44 -1 40 19 -4 23 -36 29 -44 8z"/> <path d="M2389 1446 c-23 -20 -25 -25 -13 -41 13 -18 14 -17 14 9 0 19 4 25 13 19 6 -4 20 -8 31 -8 10 0 23 -7 29 -16 16 -25 1 -49 -30 -50 -24 0 -25 -1 -8 -8 11 -5 25 -5 31 0 6 5 14 6 17 2 4 -3 7 9 7 28 0 26 -8 43 -28 62 -15 15 -30 27 -33 27 -2 0 -16 -11 -30 -24z"/> <path d="M2110 1445 c0 -9 9 -15 23 -14 21 0 21 1 2 10 -17 8 -16 9 8 6 15 -3 27 0 27 4 0 5 -13 9 -30 9 -20 0 -30 -5 -30 -15z"/> <path d="M2808 1438 c-2 -13 -1 -40 1 -60 3 -34 6 -38 31 -38 16 0 35 7 43 15 13 13 16 13 21 0 3 -8 12 -15 21 -15 13 0 15 -28 16 -202 0 -112 2 -290 5 -395 l5 -193 -90 0 c-54 0 -91 4 -91 10 0 6 -3 10 -8 10 -10 0 -9 -276 2 -287 5 -4 11 -2 13 5 3 6 11 12 18 12 7 0 16 -6 19 -12 5 -10 7 -10 12 0 3 6 12 12 20 12 9 0 12 -4 9 -10 -3 -5 -1 -10 4 -10 6 0 11 5 11 10 0 6 7 10 15 10 8 0 15 -4 15 -10 0 -5 5 -10 11 -10 5 0 7 5 4 10 -3 6 1 10 9 10 9 0 16 -4 16 -9 0 -5 3 -16 6 -25 5 -14 -6 -16 -91 -16 -53 0 -94 4 -91 8 2 4 -10 6 -28 4 -29 -3 -33 -1 -32 20 1 34 -35 31 -45 -4 -6 -25 -3 -28 65 -59 73 -34 119 -46 219 -56 49 -5 57 -3 57 11 0 10 -4 14 -10 11 -10 -6 -12 5 -13 108 -1 58 -10 74 -22 37 -6 -18 -15 -20 -90 -20 -46 0 -87 4 -90 10 -4 6 15 10 49 10 l56 0 0 55 c0 30 -4 55 -10 55 -5 0 -10 -22 -10 -50 l0 -50 -34 0 c-21 0 -36 6 -40 15 -5 15 1 138 9 162 5 14 135 17 135 2 0 -5 5 -9 10 -9 6 0 10 9 10 19 0 11 4 21 9 23 6 2 11 157 12 391 l2 387 -38 29 c-22 16 -45 27 -52 24 -18 -7 -43 15 -43 37 0 10 -6 23 -14 29 -12 10 -15 8 -18 -11z m142 -1228 c0 -28 -2 -30 -26 -24 -30 8 -55 11 -98 13 -21 1 -27 5 -22 17 3 8 2 13 -2 10 -4 -2 -14 -1 -22 5 -10 5 17 9 78 9 l92 0 0 -30z"/> <path d="M1959 1424 c-9 -11 -10 -20 -2 -32 14 -22 43 -22 57 1 9 15 7 21 -8 33 -25 18 -31 18 -47 -2z"/> <path d="M234 1414 c3 -9 6 -29 6 -45 0 -19 5 -29 15 -29 11 0 15 12 15 45 0 39 -3 45 -21 45 -15 0 -19 -4 -15 -16z"/> <path d="M1115 1408 c-7 -21 10 -48 30 -48 22 0 39 28 26 44 -20 24 -50 26 -56 4z m38 -18 c16 0 18 -3 10 -11 -16 -16 -43 -4 -42 18 0 11 3 13 6 6 2 -7 14 -13 26 -13z"/> <path d="M21 1420 c-1 -3 -3 -27 -5 -55 -3 -39 -2 -45 6 -25 7 19 7 98 -1 80z"/> <path d="M2110 1405 c0 -11 10 -15 33 -14 l32 2 -30 5 -30 5 25 7 25 8 -27 1 c-19 1 -28 -4 -28 -14z"/> <path d="M2336 1403 c-12 -12 -6 -33 9 -33 8 0 15 6 15 14 0 17 -14 28 -24 19z"/> <path d="M2424 1399 c-10 -17 13 -36 27 -22 12 12 4 33 -11 33 -5 0 -12 -5 -16 -11z"/> <path d="M2526 1396 c3 -9 11 -16 16 -16 13 0 5 23 -10 28 -7 2 -10 -2 -6 -12z"/> <path d="M837 1371 c-5 -20 -1 -21 53 -21 39 0 62 5 70 15 7 9 10 18 6 22 -3 3 -6 2 -6 -4 0 -14 -102 -17 -110 -3 -5 8 -9 4 -13 -9z"/> <path d="M2050 1375 c-10 -11 -10 -19 -2 -27 15 -15 44 -2 40 19 -4 23 -22 27 -38 8z"/> <path d="M74 1170 c0 -118 2 -167 3 -107 2 59 2 155 0 215 -1 59 -3 10 -3 -108z"/> <path d="M2117 1373 c-16 -16 -4 -23 38 -23 25 0 45 5 45 10 0 6 -17 8 -42 5 -33 -4 -37 -3 -18 4 22 8 23 9 4 10 -11 1 -24 -2 -27 -6z"/> <path d="M1965 1346 c-12 -9 -15 -19 -10 -35 9 -30 59 -26 63 6 4 29 -28 47 -53 29z m43 -23 c5 -17 -26 -29 -40 -15 -6 6 -7 15 -3 22 9 14 37 9 43 -7z"/> <path d="M2718 1335 c-5 -25 -4 -25 10 -11 12 11 13 19 5 27 -7 7 -12 3 -15 -16z"/> <path d="M1062 1327 c-19 -20 -20 -27 -11 -63 12 -46 41 -67 74 -52 18 8 18 8 -3 4 -21 -4 -21 -3 8 30 16 19 30 37 30 39 0 19 -26 54 -44 59 -30 8 -30 8 -54 -17z m73 -16 c12 -40 -20 -70 -56 -51 -35 19 -22 64 21 67 20 2 31 -3 35 -16z"/> <path d="M1318 1306 c3 -27 -1 -37 -16 -45 -25 -13 -55 -4 -48 15 4 9 -2 14 -15 14 -18 0 -20 -4 -14 -32 8 -34 20 -48 43 -48 7 0 10 -4 7 -10 -3 -5 2 -10 11 -10 16 0 16 1 0 19 -16 17 -16 19 4 24 11 3 20 1 20 -4 0 -17 16 -9 17 9 6 69 5 84 -3 92 -6 6 -9 -3 -6 -24z"/> <path d="M253 1315 c-14 -15 -7 -112 9 -121 5 -3 6 6 2 22 -5 19 -4 25 5 20 6 -4 11 -1 11 8 0 9 -4 16 -8 16 -4 0 -6 16 -4 35 5 38 3 41 -15 20z"/> <path d="M798 1323 c12 -2 30 -2 40 0 9 3 -1 5 -23 4 -22 0 -30 -2 -17 -4z"/> <path d="M1453 1317 c-56 -25 -44 -109 15 -115 35 -3 72 25 72 55 0 18 -27 16 -34 -3 -8 -20 -45 -15 -60 8 -17 27 17 57 44 40 24 -15 53 -16 48 -1 -2 6 -8 11 -13 11 -6 0 -19 4 -30 8 -11 4 -30 3 -42 -3z"/> <path d="M1809 1320 c-19 -11 -33 -71 -24 -100 9 -28 58 -26 85 2 50 54 0 134 -61 98z m60 -24 c16 -19 3 -46 -28 -57 -14 -6 -28 -10 -31 -9 -6 1 0 61 7 73 7 12 40 8 52 -7z"/> <path d="M2050 1294 c-10 -11 -10 -17 0 -28 15 -19 40 -10 40 14 0 24 -25 33 -40 14z"/> <path d="M2117 1294 c-15 -15 -6 -24 24 -24 20 0 29 4 27 13 -5 14 -40 21 -51 11z"/> <path d="M2180 1280 c0 -5 11 -10 25 -10 14 0 25 5 25 10 0 6 -11 10 -25 10 -14 0 -25 -4 -25 -10z"/> <path d="M1961 1256 c-16 -20 -3 -46 24 -46 25 0 38 21 29 45 -8 19 -38 19 -53 1z"/> <path d="M2847 1264 c-4 -4 -7 -18 -7 -31 0 -14 -6 -23 -15 -23 -21 0 -19 -18 3 -23 16 -4 16 -5 0 -6 -10 0 -18 -5 -18 -11 0 -5 8 -10 18 -11 12 0 10 -3 -8 -11 l-25 -11 25 -7 c16 -5 19 -8 8 -9 -10 -1 -18 -5 -18 -10 0 -5 8 -12 18 -14 16 -4 16 -5 -1 -6 -21 -1 -13 -21 9 -21 11 0 14 18 14 84 0 58 4 86 13 89 8 3 9 8 1 16 -6 6 -13 8 -17 5z"/> <path d="M1635 1249 c-4 -6 -8 -24 -9 -40 -2 -29 8 -36 33 -20 11 7 10 10 -4 18 -14 8 -15 14 -6 32 12 21 -2 31 -14 10z"/> <path d="M2110 1238 c0 -5 32 -8 70 -8 42 0 70 4 70 10 0 7 -26 10 -70 8 -38 -2 -70 -6 -70 -10z"/> <path d="M2053 1219 c-15 -15 -4 -49 14 -49 13 0 13 3 2 16 -10 13 -10 17 0 24 8 4 9 10 4 13 -6 4 -14 2 -20 -4z"/> <path d="M277 1199 c-3 -12 0 -34 8 -48 13 -25 13 -24 8 19 -7 54 -9 57 -16 29z"/> <path d="M14 1201 c4 -6 9 -21 11 -32 5 -24 13 -35 20 -28 8 9 -11 63 -24 67 -8 3 -11 0 -7 -7z"/> <path d="M2112 1199 c2 -6 7 -10 11 -10 4 1 34 1 67 1 33 0 60 4 60 10 0 5 -32 9 -71 9 -42 0 -69 -4 -67 -10z"/> <path d="M2870 1200 c0 -5 7 -10 15 -10 8 0 15 5 15 10 0 6 -7 10 -15 10 -8 0 -15 -4 -15 -10z"/> <path d="M1020 1184 c0 -7 10 -20 23 -30 l22 -16 -24 5 c-17 4 -21 3 -13 -5 17 -17 52 1 52 27 0 18 -7 24 -30 27 -20 3 -30 0 -30 -8z"/> <path d="M1225 1190 c-10 -17 12 -37 25 -24 8 8 6 15 -4 23 -10 9 -16 9 -21 1z"/> <path d="M1314 1189 c-8 -14 18 -31 30 -19 9 9 0 30 -14 30 -5 0 -12 -5 -16 -11z"/> <path d="M1294 1153 c6 -18 4 -20 -13 -16 -12 3 -18 10 -14 17 3 6 2 7 -3 3 -12 -12 -11 -40 3 -54 18 -20 32 -15 39 12 4 18 13 25 33 26 l26 2 -25 4 c-14 3 -31 10 -39 16 -11 10 -13 8 -7 -10z"/> <path d="M1970 1155 c0 -8 7 -15 15 -15 8 0 15 7 15 15 0 8 -7 15 -15 15 -8 0 -15 -7 -15 -15z"/> <path d="M2870 1140 c0 -5 7 -10 15 -10 8 0 15 5 15 10 0 6 -7 10 -15 10 -8 0 -15 -4 -15 -10z"/> <path d="M2047 1126 c-8 -20 20 -43 35 -28 14 14 3 42 -16 42 -7 0 -16 -6 -19 -14z"/> <path d="M1116 1121 c-10 -16 -3 -71 10 -71 19 0 36 27 32 52 -3 24 -32 37 -42 19z"/> <path d="M2120 1117 c0 -8 15 -13 42 -14 30 -2 38 1 28 7 -20 13 1 13 34 0 21 -7 26 -6 26 5 0 12 -14 15 -65 15 -46 0 -65 -4 -65 -13z"/> <path d="M2600 1120 c-12 -8 -11 -10 8 -10 12 0 22 5 22 10 0 13 -11 13 -30 0z"/> <path d="M2870 1110 c0 -5 7 -10 15 -10 8 0 15 5 15 10 0 6 -7 10 -15 10 -8 0 -15 -4 -15 -10z"/> <path d="M1967 1104 c-13 -14 -7 -52 10 -58 25 -10 51 20 37 42 -12 19 -36 27 -47 16z"/> <path d="M1023 1087 c-3 -7 -3 -9 2 -5 4 4 15 3 24 -2 10 -5 23 -5 32 1 12 7 12 9 -1 10 -8 0 -23 2 -32 4 -10 2 -21 -2 -25 -8z"/> <path d="M1314 1089 c-10 -17 13 -36 27 -22 12 12 4 33 -11 33 -5 0 -12 -5 -16 -11z"/> <path d="M26 1081 c-4 -5 0 -12 6 -14 7 -3 2 -6 -12 -7 l-25 -1 25 -14 c14 -8 20 -14 15 -15 -13 0 -7 -131 6 -144 5 -6 9 32 9 97 0 96 -7 126 -24 98z"/> <path d="M1638 1073 c5 -10 12 -25 15 -33 3 -8 6 0 6 18 1 22 -4 32 -14 32 -12 0 -13 -5 -7 -17z"/> <path d="M2117 1084 c-14 -14 6 -24 46 -23 37 1 39 2 17 10 -18 6 -12 7 23 3 30 -3 47 -1 47 5 0 12 -122 16 -133 5z"/> <path d="M2870 1080 c0 -5 7 -10 15 -10 8 0 15 5 15 10 0 6 -7 10 -15 10 -8 0 -15 -4 -15 -10z"/> <path d="M1290 1060 c0 -6 7 -13 15 -17 24 -9 27 1 5 15 -13 8 -20 8 -20 2z"/> <path d="M2848 1053 c-27 -4 -28 -6 -23 -56 3 -29 8 -68 11 -89 5 -30 3 -37 -13 -41 -16 -4 -16 -5 0 -6 21 -1 23 -18 2 -23 -10 -2 -8 -6 8 -13 21 -10 22 -9 19 30 -3 33 2 48 22 72 32 38 32 43 2 43 -13 0 -29 7 -36 15 -11 13 -8 15 16 16 26 0 27 1 9 10 -17 8 -16 9 8 5 21 -3 27 0 23 11 -3 8 -6 19 -6 24 0 5 -3 8 -7 8 -5 -1 -20 -4 -35 -6z"/> <path d="M2120 1035 c0 -12 14 -15 65 -15 51 0 65 3 65 15 0 12 -14 15 -65 15 -51 0 -65 -3 -65 -15z m93 -2 c-13 -2 -35 -2 -50 0 -16 2 -5 4 22 4 28 0 40 -2 28 -4z"/> <path d="M1962 1013 c-13 -24 3 -53 29 -53 24 0 36 27 22 49 -15 23 -40 25 -51 4z m46 -20 c-2 -10 -10 -18 -18 -18 -8 0 -16 8 -18 18 -2 12 3 17 18 17 15 0 20 -5 18 -17z"/> <path d="M1036 994 c-3 -8 -1 -24 4 -34 7 -13 6 -20 -3 -23 -6 -3 4 -5 23 -5 19 0 30 2 23 5 -9 3 -10 9 -1 22 6 10 8 26 5 35 -8 21 -43 21 -51 0z"/> <path d="M2117 1004 c-15 -16 9 -24 69 -24 50 0 64 3 64 15 0 12 -14 15 -63 15 -35 0 -67 -3 -70 -6z m76 -11 c-13 -2 -33 -2 -45 0 -13 2 -3 4 22 4 25 0 35 -2 23 -4z"/> <path d="M1314 989 c-10 -17 13 -36 27 -22 12 12 4 33 -11 33 -5 0 -12 -5 -16 -11z"/> <path d="M2053 969 c-16 -16 -5 -39 19 -39 14 0 19 6 16 22 -4 25 -19 33 -35 17z"/> <path d="M1093 933 c-17 -19 -32 -36 -32 -39 -1 -2 -1 -5 -2 -6 0 -2 -2 -22 -4 -45 -2 -32 0 -40 11 -36 15 5 17 14 14 51 -1 14 4 22 15 22 9 0 13 5 10 10 -11 18 16 40 49 41 20 1 24 3 11 6 -11 3 -24 10 -30 17 -8 10 -18 5 -42 -21z"/> <path d="M2120 955 c0 -10 10 -15 30 -15 20 0 30 5 30 15 0 10 -10 15 -30 15 -20 0 -30 -5 -30 -15z"/> <path d="M406 912 c10 -18 20 -28 23 -21 2 6 -7 21 -19 33 l-23 21 19 -33z"/> <path d="M1532 898 c5 -15 28 -18 29 -3 0 6 -7 12 -17 13 -10 3 -15 -1 -12 -10z"/> <path d="M1642 899 c2 -6 8 -10 13 -10 5 0 11 4 13 10 2 6 -4 11 -13 11 -9 0 -15 -5 -13 -11z"/> <path d="M2018 903 c12 -2 30 -2 40 0 9 3 -1 5 -23 4 -22 0 -30 -2 -17 -4z"/> <path d="M2470 890 c0 -5 9 -10 20 -10 11 0 20 5 20 10 0 6 -9 10 -20 10 -11 0 -20 -4 -20 -10z"/> <path d="M73 855 c0 -22 2 -30 4 -17 2 12 2 30 0 40 -3 9 -5 -1 -4 -23z"/> <path d="M1335 880 c-20 -9 -20 -9 0 -9 11 0 29 4 40 9 20 9 20 9 0 9 -11 0 -29 -4 -40 -9z"/> <path d="M2017 877 c-3 -8 -2 -20 3 -27 11 -18 42 -4 38 17 -4 22 -34 29 -41 10z"/> <path d="M2104 865 c0 -28 11 -32 32 -10 18 17 10 35 -15 35 -11 0 -17 -8 -17 -25z"/> <path d="M2183 874 c-3 -8 -1 -20 6 -27 14 -14 47 15 37 32 -10 16 -36 13 -43 -5z"/> <path d="M1575 870 c-4 -7 -18 -10 -31 -7 -16 3 -24 0 -24 -9 0 -20 59 -18 67 1 7 19 -2 31 -12 15z"/> <path d="M1112 835 c-12 -26 -7 -31 18 -15 13 9 13 10 0 10 -9 1 -5 6 10 15 23 13 23 14 4 15 -13 0 -25 -10 -32 -25z"/> <path d="M1618 844 c-5 -4 -8 -16 -8 -28 0 -14 3 -17 11 -9 6 6 9 19 7 28 -1 9 -6 13 -10 9z"/> <path d="M1572 806 c13 -14 28 -12 28 5 0 5 -9 9 -20 9 -17 0 -19 -2 -8 -14z"/> <path d="M1840 810 c-22 -14 -6 -27 18 -14 17 8 19 13 9 17 -8 3 -20 2 -27 -3z"/> <path d="M2534 809 c-3 -6 0 -17 8 -25 13 -13 16 -13 27 0 7 8 10 20 6 26 -8 13 -32 13 -41 -1z"/> <path d="M2610 801 c0 -27 19 -36 37 -18 18 18 9 37 -18 37 -12 0 -19 -7 -19 -19z"/> <path d="M1982 797 c-15 -17 1 -42 23 -33 18 6 17 37 -1 43 -6 2 -16 -2 -22 -10z"/> <path d="M2144 795 c-7 -18 3 -35 21 -35 15 0 24 19 18 38 -6 17 -32 15 -39 -3z"/> <path d="M2224 795 c-4 -9 -2 -21 4 -27 15 -15 44 -1 40 19 -4 23 -36 29 -44 8z"/> <path d="M1640 786 c0 -9 7 -16 16 -16 9 0 14 5 12 12 -6 18 -28 21 -28 4z"/> <path d="M1740 785 c0 -10 7 -15 18 -13 21 4 19 22 -2 26 -10 2 -16 -3 -16 -13z"/> <path d="M1530 780 c0 -5 9 -10 20 -10 11 0 20 5 20 10 0 6 -9 10 -20 10 -11 0 -20 -4 -20 -10z"/> <path d="M2054 775 c8 -8 21 -15 28 -16 7 -1 2 -5 -12 -9 -23 -8 -23 -8 8 -9 18 -1 42 -6 53 -11 39 -21 17 -1 -31 29 -55 34 -69 39 -46 16z"/> <path d="M2833 728 c18 -50 18 -58 1 -51 -12 4 -15 3 -10 -5 4 -7 16 -12 27 -12 11 0 18 -4 15 -8 -3 -5 9 -9 27 -9 18 0 27 2 20 4 -8 3 -10 15 -6 33 3 19 0 34 -10 45 -19 18 -71 21 -64 3z m62 -33 c0 -11 -7 -21 -16 -23 -18 -3 -33 23 -23 39 10 17 39 5 39 -16z"/> <path d="M2067 692 c-9 -2 -17 -7 -17 -12 0 -4 34 -7 75 -6 88 1 103 21 17 21 -32 0 -66 -1 -75 -3z"/> <path d="M640 639 c-47 -5 -42 -6 38 -7 50 -1 92 0 92 2 0 8 -76 11 -130 5z"/> <path d="M1371 591 c-9 -6 -10 -11 -2 -15 6 -4 11 -1 11 6 0 10 2 10 9 -1 5 -8 16 -11 26 -8 9 4 13 11 10 17 -8 12 -35 13 -54 1z"/> <path d="M2657 593 c-3 -5 8 -9 24 -10 16 -1 29 2 29 7 0 12 -47 13 -53 3z"/> <path d="M350 578 c0 -6 3 -8 7 -5 3 4 14 -4 23 -19 l17 -26 7 27 c4 15 5 30 1 33 -3 3 -5 -3 -5 -14 -1 -18 -1 -18 -14 -1 -15 19 -36 23 -36 5z"/> <path d="M1463 530 c0 -36 2 -50 4 -32 2 17 2 47 0 65 -2 17 -4 3 -4 -33z"/> <path d="M1798 573 c12 -2 32 -2 45 0 12 2 2 4 -23 4 -25 0 -35 -2 -22 -4z"/> <path d="M1875 570 c3 -5 13 -10 21 -10 8 0 14 5 14 10 0 6 -9 10 -21 10 -11 0 -17 -4 -14 -10z"/> <path d="M1983 573 c44 -4 47 -6 41 -29 -5 -18 -2 -24 9 -24 23 0 29 16 15 40 -10 16 -22 20 -63 18 l-50 -2 48 -3z"/> <path d="M2118 566 c-29 -22 -22 -46 13 -46 24 0 30 4 27 18 -2 9 -10 16 -16 15 -7 -2 -12 1 -12 6 0 6 24 12 53 14 l52 3 -50 2 c-28 1 -58 -4 -67 -12z"/> <path d="M2328 573 c18 -2 45 -2 60 0 15 2 0 4 -33 4 -33 0 -45 -2 -27 -4z"/> <path d="M0 560 c1 -8 7 -24 15 -34 19 -25 19 -16 0 20 -8 16 -15 22 -15 14z"/> <path d="M1756 555 c-10 -26 -7 -35 9 -35 17 0 19 18 6 38 -7 11 -10 10 -15 -3z"/> <path d="M230 540 c0 -16 7 -20 34 -20 22 0 36 6 40 16 9 24 9 24 -34 24 -33 0 -40 -3 -40 -20z m60 0 c0 -5 -11 -10 -25 -10 -14 0 -25 5 -25 10 0 6 11 10 25 10 14 0 25 -4 25 -10z"/> <path d="M1937 553 c-13 -12 -7 -33 8 -33 8 0 15 9 15 20 0 20 -11 26 -23 13z"/> <path d="M2190 541 c0 -17 6 -21 31 -21 24 0 30 4 27 18 -2 10 -14 18 -31 20 -22 3 -27 -1 -27 -17z"/> <path d="M2280 540 c0 -16 7 -20 30 -20 23 0 30 4 30 20 0 16 -7 20 -30 20 -23 0 -30 -4 -30 -20z"/> <path d="M2370 540 c0 -15 7 -20 25 -20 14 0 28 7 31 15 5 11 11 12 27 4 21 -10 21 -10 3 5 -11 9 -35 16 -53 16 -26 0 -33 -4 -33 -20z"/> <path d="M2639 555 c0 -3 -1 -18 -1 -35 0 -61 2 -70 16 -70 8 0 16 -7 20 -15 4 -10 -1 -15 -14 -15 -18 0 -20 -7 -19 -57 1 -32 3 -50 6 -40 5 20 68 24 76 5 3 -7 6 11 6 40 1 45 -2 52 -19 52 -13 0 -18 5 -13 16 4 10 -1 17 -15 21 -44 11 -37 63 9 63 16 0 29 5 29 10 0 6 -5 10 -11 10 -5 0 -7 5 -4 10 3 6 1 10 -4 10 -6 0 -11 -4 -11 -10 0 -5 -8 -10 -17 -10 -15 0 -16 2 -3 10 12 8 11 10 -7 10 -13 0 -23 -2 -24 -5z m70 -159 c17 -20 2 -46 -25 -46 -26 0 -40 20 -30 45 7 19 40 20 55 1z"/> <path d="M2673 393 c-7 -3 -13 -11 -13 -20 0 -17 41 -14 47 3 4 13 -16 23 -34 17z"/> <path d="M1630 535 c0 -11 12 -15 45 -15 33 0 45 4 45 15 0 11 -12 15 -45 15 -33 0 -45 -4 -45 -15z"/> <path d="M1840 535 c0 -8 7 -15 15 -15 8 0 15 7 15 15 0 8 -7 15 -15 15 -8 0 -15 -7 -15 -15z"/> <path d="M1191 516 c-16 -19 -6 -36 20 -36 15 0 20 6 17 22 -4 27 -21 33 -37 14z"/> <path d="M1393 519 c-15 -15 -5 -39 17 -39 22 0 32 24 17 39 -6 6 -14 11 -17 11 -3 0 -11 -5 -17 -11z"/> <path d="M2480 520 c4 -26 0 -38 -12 -43 -7 -2 -5 -3 5 -2 9 2 17 -3 17 -10 0 -7 7 -15 15 -19 8 -3 15 -10 15 -16 0 -5 -7 -10 -15 -10 -12 0 -15 -13 -15 -55 l0 -55 35 0 c26 0 33 3 29 15 -4 8 -12 15 -20 15 -7 0 -18 9 -24 21 -20 36 18 60 58 36 7 -5 12 -3 12 7 0 10 -9 16 -22 16 -21 0 -21 0 -3 14 11 8 24 13 30 12 5 -2 7 -1 3 1 -5 3 -8 11 -8 19 0 8 -9 14 -22 13 -13 0 -17 -3 -10 -6 6 -2 12 -11 12 -19 0 -12 -4 -12 -20 -4 -11 6 -20 19 -20 29 0 10 -9 26 -21 37 -16 15 -21 16 -19 4z"/> <path d="M294 505 c-106 -20 -150 -21 -146 -6 2 9 -4 10 -20 6 -49 -15 -48 -45 0 -45 23 -1 25 -2 9 -11 -9 -5 -22 -7 -27 -4 -6 3 -10 1 -10 -4 0 -22 -19 -10 -40 25 -12 19 -25 33 -28 30 -3 -3 2 -14 12 -25 9 -10 20 -36 23 -57 5 -28 8 -33 13 -19 6 16 9 15 28 -13 37 -51 233 -185 249 -169 3 4 1 7 -6 7 -7 0 -10 4 -7 9 3 5 -34 34 -82 64 -48 31 -100 69 -116 85 -29 31 -28 56 1 45 10 -4 14 -2 10 4 -4 6 12 13 40 17 67 9 68 9 69 -26 1 -18 8 -50 15 -70 12 -31 19 -38 41 -38 38 0 38 30 1 31 l-28 1 29 8 c58 18 87 75 54 108 -8 8 -9 12 -1 12 6 0 18 3 27 6 10 4 21 -7 37 -38 12 -24 35 -60 51 -80 28 -36 25 -54 -6 -42 -9 3 -16 2 -16 -4 0 -5 25 -12 56 -14 32 -3 59 -11 64 -19 7 -11 10 -10 15 3 5 13 18 17 48 15 54 -2 153 9 168 19 7 4 9 3 6 -3 -4 -6 16 -10 48 -11 37 -1 55 3 55 11 0 8 3 8 9 -2 7 -11 11 -10 20 5 9 17 10 17 11 2 0 -11 8 -18 20 -18 13 0 17 5 14 14 -4 11 0 13 15 9 12 -3 21 -10 21 -15 0 -5 4 -7 9 -4 5 3 7 15 4 26 -4 17 -11 19 -37 15 -17 -2 -92 -9 -166 -15 -74 -6 -149 -13 -166 -16 -24 -4 -34 -1 -42 12 -15 28 -42 26 -42 -2 0 -14 -6 -24 -14 -24 -15 0 -86 80 -86 97 0 16 -107 123 -121 122 -8 -1 -46 -7 -85 -14z m72 -60 c3 -8 -1 -22 -10 -30 -9 -9 -16 -20 -16 -25 0 -14 -31 -20 -51 -10 -21 12 -25 50 -7 68 17 17 77 15 84 -3z"/> <path d="M1287 506 c-3 -8 1 -20 9 -27 12 -10 18 -9 31 3 8 9 12 21 9 27 -10 16 -43 14 -49 -3z"/> <path d="M930 502 c-68 -2 -119 -7 -125 -14 -7 -8 -5 -9 8 -4 10 3 86 6 168 6 84 0 149 4 149 9 0 5 -19 9 -42 8 -24 -1 -95 -3 -158 -5z"/> <path d="M1653 494 c-3 -8 1 -22 9 -30 13 -13 16 -13 27 0 7 9 11 23 7 31 -7 20 -35 19 -43 -1z"/> <path d="M1834 499 c-4 -7 -22 -9 -50 -4 -35 5 -44 3 -44 -9 0 -23 19 -30 46 -15 19 10 29 10 48 0 19 -10 27 -10 44 0 17 11 25 11 47 -1 19 -10 28 -11 37 -2 15 15 58 16 58 2 0 -16 30 -11 37 6 8 22 -13 42 -29 26 -15 -15 -51 -15 -66 0 -9 9 -18 8 -37 -2 -21 -11 -30 -12 -45 -2 -24 15 -37 15 -46 1z"/> <path d="M2207 504 c-13 -13 -7 -24 14 -24 11 0 19 5 17 12 -5 14 -22 21 -31 12z"/> <path d="M2382 488 c2 -13 10 -23 18 -23 8 0 16 10 18 23 3 17 -2 22 -18 22 -16 0 -21 -5 -18 -22z"/> <path d="M2720 490 c0 -11 5 -20 10 -20 6 0 10 9 10 20 0 11 -4 20 -10 20 -5 0 -10 -9 -10 -20z"/> <path d="M1586 491 c-19 -7 -18 -8 4 -14 26 -7 43 0 35 14 -7 10 -13 10 -39 0z"/> <path d="M2110 486 c0 -22 17 -28 24 -10 9 22 8 24 -9 24 -8 0 -15 -6 -15 -14z"/> <path d="M2290 486 c0 -21 21 -31 31 -15 14 22 11 29 -11 29 -11 0 -20 -6 -20 -14z"/> <path d="M2937 463 c-4 -21 -3 -41 1 -45 4 -4 8 13 10 38 3 54 -3 58 -11 7z"/> <path d="M895 470 c-10 -17 12 -37 25 -24 8 8 6 15 -4 23 -10 9 -16 9 -21 1z"/> <path d="M693 458 c2 -7 10 -13 17 -13 7 0 15 6 18 13 2 7 -5 12 -18 12 -13 0 -20 -5 -17 -12z"/> <path d="M993 458 c2 -7 10 -13 17 -13 7 0 15 6 18 13 2 7 -5 12 -18 12 -13 0 -20 -5 -17 -12z"/> <path d="M1220 456 c0 -6 9 -12 20 -12 11 0 20 3 20 7 0 4 -9 9 -20 12 -12 3 -20 0 -20 -7z"/> <path d="M1540 460 c-14 -4 -45 -9 -70 -10 -25 -1 -56 -6 -70 -10 -16 -5 -4 -7 34 -4 50 3 61 1 73 -16 14 -19 40 -29 28 -11 -3 5 -1 12 5 16 9 5 35 46 28 44 -2 -1 -14 -5 -28 -9z"/> <path d="M2188 463 c-10 -2 -18 -8 -18 -13 0 -4 9 -6 20 -3 11 3 20 9 20 14 0 5 -1 8 -2 8 -2 -1 -11 -3 -20 -6z"/> <path d="M2700 460 c0 -14 15 -19 29 -11 9 6 7 10 -8 14 -12 3 -21 1 -21 -3z"/> <path d="M1160 448 c0 -11 22 -10 40 2 11 8 9 9 -12 8 -16 -1 -28 -6 -28 -10z"/> <path d="M2100 430 c0 -13 6 -19 18 -17 46 7 51 37 6 37 -17 0 -24 -5 -24 -20z"/> <path d="M2280 435 c0 -10 10 -15 30 -15 20 0 30 5 30 15 0 10 -10 15 -30 15 -20 0 -30 -5 -30 -15z"/> <path d="M2370 435 c0 -10 10 -15 30 -15 20 0 30 5 30 15 0 10 -10 15 -30 15 -20 0 -30 -5 -30 -15z"/> <path d="M1640 430 c0 -5 7 -10 15 -10 8 0 15 5 15 10 0 6 -7 10 -15 10 -8 0 -15 -4 -15 -10z"/> <path d="M1682 429 c2 -6 8 -10 13 -10 5 0 11 4 13 10 2 6 -4 11 -13 11 -9 0 -15 -5 -13 -11z"/> <path d="M1752 429 c2 -6 8 -10 13 -10 5 0 11 4 13 10 2 6 -4 11 -13 11 -9 0 -15 -5 -13 -11z"/> <path d="M1842 429 c2 -6 8 -10 13 -10 5 0 11 4 13 10 2 6 -4 11 -13 11 -9 0 -15 -5 -13 -11z"/> <path d="M1932 429 c2 -6 8 -10 13 -10 5 0 11 4 13 10 2 6 -4 11 -13 11 -9 0 -15 -5 -13 -11z"/> <path d="M2020 430 c0 -5 7 -10 15 -10 8 0 15 5 15 10 0 6 -7 10 -15 10 -8 0 -15 -4 -15 -10z"/> <path d="M1255 405 l-50 -12 70 0 c76 0 95 5 74 18 -18 11 -32 10 -94 -6z"/> <path d="M1430 410 c-8 -5 -25 -7 -37 -3 -14 3 -23 1 -23 -6 0 -11 4 -12 53 -15 30 -2 45 10 31 24 -5 5 -16 5 -24 0z"/> <path d="M531 389 c22 -22 35 -20 26 6 -4 8 -16 15 -27 15 -20 0 -20 0 1 -21z"/> <path d="M570 403 c0 -10 19 -40 21 -33 0 3 2 13 4 23 2 9 -3 17 -11 17 -8 0 -14 -3 -14 -7z"/> <path d="M155 380 c10 -11 20 -18 23 -16 5 6 -23 36 -34 36 -4 0 1 -9 11 -20z"/> <path d="M1654 385 c-4 -9 -2 -21 4 -27 15 -15 44 -1 40 19 -4 23 -36 29 -44 8z"/> <path d="M1750 390 c-7 -4 -10 -15 -7 -24 7 -18 32 -21 42 -6 9 14 52 12 58 -2 3 -10 9 -10 26 0 25 14 61 16 61 2 0 -5 7 -10 15 -10 8 0 15 5 15 10 0 6 8 10 17 10 14 0 13 3 -6 16 -17 12 -26 13 -34 5 -14 -14 -50 -14 -65 1 -9 9 -17 8 -37 -2 -19 -10 -31 -11 -48 -3 -13 6 -30 8 -37 3z"/> <path d="M2016 391 c-10 -16 5 -42 23 -39 21 4 21 42 -1 46 -9 2 -19 -1 -22 -7z"/> <path d="M2293 384 c-7 -18 11 -39 26 -30 17 11 13 46 -4 46 -9 0 -18 -7 -22 -16z"/> <path d="M2382 378 c2 -13 10 -23 18 -23 8 0 16 10 18 23 3 17 -2 22 -18 22 -16 0 -21 -5 -18 -22z"/> <path d="M2110 380 c0 -9 5 -21 12 -28 9 -9 8 -12 -5 -12 -9 0 -17 -5 -17 -11 0 -5 5 -7 10 -4 6 3 14 -4 19 -17 10 -23 10 -23 10 3 1 15 -6 40 -14 55 -8 16 -15 22 -15 14z"/> <path d="M50 355 c-1 -28 -1 -29 -15 -11 -8 11 -18 17 -21 13 -7 -6 7 -30 45 -77 l21 -25 0 28 c0 32 17 32 34 1 15 -26 28 -34 46 -29 8 2 22 0 30 -5 11 -7 -1 -10 -39 -10 -53 0 -54 0 -36 -20 10 -11 42 -38 71 -61 l53 -40 47 20 c26 12 44 24 41 27 -3 3 -19 -1 -36 -9 -16 -8 -31 -12 -33 -8 -2 3 -24 16 -50 28 -27 13 -48 30 -48 38 0 19 -7 20 86 -11 78 -26 152 -36 160 -22 6 9 -32 29 -40 21 -3 -3 -35 2 -70 11 -62 17 -114 49 -109 66 1 5 -4 11 -13 14 -9 4 -12 2 -8 -5 4 -8 0 -7 -15 0 -11 7 -21 14 -21 17 0 3 5 2 12 -2 7 -4 8 -3 4 4 -4 6 -13 9 -20 6 -8 -3 -27 11 -45 33 l-31 38 0 -30z"/> <path d="M2267 363 c-6 -22 -1 -82 7 -90 3 -4 6 19 6 50 0 58 -5 72 -13 40z"/> <path d="M1088 363 c-13 -3 -18 -14 -18 -36 1 -29 2 -30 14 -14 14 18 52 25 41 7 -3 -5 2 -10 12 -10 13 0 18 8 18 25 0 14 -4 23 -10 21 -5 -2 -17 0 -25 4 -8 3 -23 5 -32 3z"/> <path d="M768 353 c18 -2 45 -2 60 0 15 2 0 4 -33 4 -33 0 -45 -2 -27 -4z"/> <path d="M1171 333 c0 -16 3 -22 6 -15 6 14 63 17 63 2 0 -5 3 -10 8 -10 4 0 7 11 7 25 0 23 -4 25 -42 25 -40 0 -43 -2 -42 -27z"/> <path d="M1270 335 c0 -14 5 -25 10 -25 6 0 10 5 10 10 0 6 9 10 20 10 11 0 20 -4 20 -10 0 -5 6 -10 14 -10 9 0 12 8 8 25 -5 26 -26 34 -36 13 -5 -10 -7 -10 -12 0 -10 22 -34 13 -34 -13z"/> <path d="M1370 343 c0 -8 15 -13 41 -13 24 0 38 -4 34 -10 -3 -5 -1 -10 5 -10 7 0 9 8 5 20 -5 17 -2 20 20 20 18 0 29 -6 32 -20 7 -26 49 -27 56 -1 3 14 0 17 -14 14 -11 -3 -19 0 -19 6 0 8 -25 11 -80 9 -56 -2 -80 -7 -80 -15z"/> <path d="M660 335 c0 -8 4 -15 9 -15 5 0 11 7 15 15 3 9 0 15 -9 15 -8 0 -15 -7 -15 -15z"/> <path d="M2900 340 c0 -5 7 -10 15 -10 8 0 15 5 15 10 0 6 -7 10 -15 10 -8 0 -15 -4 -15 -10z"/> <path d="M1740 328 c0 -4 11 -8 25 -8 14 0 25 4 25 10 0 5 -11 9 -25 8 -14 -1 -25 -6 -25 -10z"/> <path d="M1830 330 c0 -6 12 -10 27 -10 29 0 24 12 -7 17 -11 2 -20 -2 -20 -7z"/> <path d="M1920 328 c0 -4 14 -8 30 -8 17 0 30 4 30 9 0 5 -13 9 -30 9 -16 -1 -30 -5 -30 -10z"/> <path d="M2010 328 c0 -4 14 -8 30 -8 17 0 30 4 30 8 0 5 -13 9 -30 9 -16 0 -30 -4 -30 -9z"/> <path d="M2390 330 c0 -5 6 -10 14 -10 8 0 18 5 21 10 3 6 -3 10 -14 10 -12 0 -21 -4 -21 -10z"/> <path d="M1372 299 c-9 -15 -10 -24 -3 -33 15 -18 -162 -26 -611 -26 -340 0 -393 4 -358 25 15 10 12 22 -8 27 -26 7 -42 -1 -42 -22 0 -23 20 -38 61 -46 19 -4 39 -11 45 -15 6 -5 14 -6 17 -2 4 3 7 0 7 -8 1 -12 3 -11 13 1 10 13 70 15 417 18 223 1 578 4 789 7 l383 4 -6 -32 c-8 -49 -10 -142 -2 -155 3 -6 2 -13 -4 -17 -15 -9 -12 -25 4 -25 16 0 31 103 16 108 -14 5 -12 32 3 32 8 0 7 3 -3 10 -13 8 -13 11 1 22 9 7 19 30 22 52 l6 38 -354 -7 c-346 -7 -354 -7 -349 12 3 11 -2 26 -13 35 -18 16 -19 16 -31 -3z"/> <path d="M0 268 c0 -11 11 -29 25 -40 23 -18 25 -26 25 -99 0 -57 3 -78 11 -73 7 4 9 24 6 53 -4 30 -1 52 8 64 12 16 13 16 19 -8 4 -14 11 -23 16 -20 6 4 10 -8 11 -27 1 -31 1 -32 9 -8 4 14 8 20 9 14 1 -7 17 -19 36 -28 20 -10 35 -24 35 -34 1 -23 66 -52 118 -52 35 0 49 6 81 38 32 31 38 43 34 66 -6 30 -1 32 50 11 10 -4 17 -3 17 3 0 11 -30 23 -67 28 -19 2 -21 -2 -17 -25 7 -31 -23 -74 -67 -97 -26 -13 -35 -13 -71 0 -41 13 -63 36 -36 36 7 0 -7 10 -32 22 -25 12 -84 61 -132 109 -67 67 -88 83 -88 67z"/> <path d="M495 280 c-6 -10 -5 -11 33 -15 25 -3 30 10 6 19 -22 8 -32 8 -39 -4z"/> <path d="M1515 281 c6 -11 45 -10 45 1 0 4 -12 8 -26 8 -14 0 -23 -4 -19 -9z"/> <path d="M2296 223 c8 -47 8 -47 47 -48 27 0 33 -4 38 -30 l6 -30 4 28 c5 31 23 37 24 7 0 -29 19 -25 23 5 5 41 22 29 22 -16 l0 -41 -37 4 c-21 1 -38 -2 -40 -9 -3 -7 3 -9 15 -6 11 2 35 -3 53 -12 19 -10 29 -12 23 -6 -6 7 -8 33 -4 66 l6 55 -44 -5 c-57 -5 -102 4 -102 21 0 22 13 24 139 25 97 0 124 -3 137 -15 8 -9 25 -16 37 -17 12 0 16 -3 10 -6 -18 -7 -16 -43 2 -43 8 0 15 -9 15 -20 0 -17 2 -17 27 6 l28 26 6 -24 c6 -20 7 -21 9 -3 1 16 5 13 16 -12 14 -33 29 -47 17 -17 -6 17 12 34 37 33 8 0 4 -5 -10 -10 -38 -15 -5 -30 51 -23 27 4 55 2 67 -5 15 -8 22 -8 25 2 3 6 6 2 6 -10 1 -12 7 -23 14 -26 9 -3 9 -9 0 -24 -6 -11 -8 -25 -3 -32 10 -18 20 10 20 60 0 21 5 39 10 39 6 0 10 4 10 9 0 5 -24 10 -52 10 -101 0 -231 41 -303 97 l-45 34 -156 0 -155 0 7 -37z"/> <path d="M815 180 c-27 -7 -25 -8 18 -9 40 -1 47 -4 47 -21 0 -11 5 -20 10 -20 6 0 10 9 10 20 0 17 7 20 45 20 38 0 45 -3 45 -20 0 -11 5 -20 10 -20 6 0 10 9 10 20 0 17 7 20 45 20 38 0 45 -3 45 -20 0 -11 5 -20 10 -20 6 0 10 9 10 20 0 17 7 20 45 20 38 0 45 -3 45 -20 0 -11 5 -20 10 -20 6 0 10 4 10 10 0 19 50 23 69 6 13 -12 21 -14 26 -6 4 6 5 14 2 17 -13 12 -151 27 -224 24 -10 -1 -61 -1 -113 -2 -52 0 -99 0 -105 -1 -5 0 -17 2 -25 5 -8 2 -28 1 -45 -3z"/> <path d="M1428 179 c-8 -6 3 -9 30 -9 36 0 42 -3 42 -21 0 -12 5 -19 13 -16 6 2 11 12 11 21 -1 12 7 16 41 16 35 0 44 -4 50 -22 l8 -23 4 23 c4 19 11 22 49 22 37 0 44 -3 44 -20 0 -11 5 -20 10 -20 6 0 10 9 10 20 0 17 7 20 45 20 38 0 45 -3 45 -20 0 -11 7 -20 15 -20 24 0 18 39 -8 49 -29 11 -392 11 -409 0z"/> <path d="M2600 140 c0 -41 3 -50 21 -55 24 -8 45 8 34 25 -6 9 -9 9 -16 -1 -4 -7 -11 -10 -15 -6 -4 4 -3 12 3 18 13 13 5 56 -13 63 -11 4 -14 -6 -14 -44z"/> <path d="M581 166 c-9 -11 -6 -12 14 -8 15 2 25 0 25 -7 0 -6 5 -11 12 -11 6 0 3 9 -7 20 -21 24 -29 25 -44 6z"/> <path d="M1900 167 c29 -14 37 -41 20 -62 -16 -19 -49 -19 -56 0 -9 22 -34 18 -34 -5 0 -17 -7 -20 -45 -20 -38 0 -45 3 -45 20 0 11 -4 20 -10 20 -5 0 -10 -9 -10 -20 0 -17 -7 -20 -40 -20 -36 0 -40 -3 -40 -24 0 -13 -3 -31 -6 -40 -4 -11 0 -16 14 -16 15 0 18 5 15 24 -7 33 21 46 105 50 107 5 168 13 188 25 17 9 18 10 2 11 -10 0 -18 6 -18 14 0 23 18 28 30 9 7 -12 10 -13 7 -3 -4 16 -62 49 -87 49 -8 1 -4 -5 10 -12z"/> <path d="M2036 164 c-9 -24 -7 -62 4 -69 6 -4 10 12 10 39 0 48 -4 56 -14 30z"/> <path d="M2491 135 c0 -38 2 -45 9 -28 5 12 5 34 0 50 -7 24 -8 21 -9 -22z"/> <path d="M1398 153 c-2 -10 -1 -29 3 -43 6 -20 7 -17 8 18 1 44 -4 54 -11 25z"/> <path d="M777 123 c7 -52 13 -54 13 -5 0 23 -4 42 -9 42 -5 0 -7 -17 -4 -37z"/> <path d="M2340 141 c0 -12 5 -21 10 -21 6 0 10 6 10 14 0 8 -4 18 -10 21 -5 3 -10 -3 -10 -14z"/> <path d="M1255 130 c-9 -15 -1 -23 21 -18 15 3 16 4 1 16 -11 9 -17 10 -22 2z"/> <path d="M1440 126 c0 -10 9 -16 21 -16 24 0 21 23 -4 28 -10 2 -17 -3 -17 -12z"/> <path d="M1653 133 c-16 -6 -17 -29 -1 -39 7 -4 8 -3 4 4 -5 8 0 12 13 12 12 0 21 7 21 15 0 15 -14 18 -37 8z"/> <path d="M1767 134 c-11 -11 3 -24 24 -24 12 0 19 5 17 13 -5 14 -31 21 -41 11z"/> <path d="M1876 131 c-3 -5 0 -11 8 -14 15 -6 26 1 26 15 0 11 -27 10 -34 -1z"/> <path d="M530 106 c0 -25 17 -36 56 -36 35 0 29 15 -16 39 l-40 21 0 -24z"/> <path d="M822 118 c5 -15 28 -18 29 -3 0 6 -7 12 -17 13 -10 3 -15 -1 -12 -10z"/> <path d="M920 121 c0 -11 26 -22 34 -14 12 12 5 23 -14 23 -11 0 -20 -4 -20 -9z"/> <path d="M1035 120 c-3 -5 -4 -10 -1 -10 2 0 11 -3 20 -6 11 -4 16 -1 16 10 0 18 -25 22 -35 6z"/> <path d="M1142 118 c7 -19 38 -22 38 -4 0 10 -9 16 -21 16 -12 0 -19 -5 -17 -12z"/> <path d="M887 113 c-11 -10 -8 -43 3 -43 6 0 10 11 10 25 0 26 -2 29 -13 18z"/> <path d="M990 95 c0 -14 5 -25 10 -25 6 0 10 11 10 25 0 14 -4 25 -10 25 -5 0 -10 -11 -10 -25z"/> <path d="M1100 100 c0 -20 -8 -24 -45 -21 -18 1 -18 1 -3 -9 28 -17 68 -2 68 26 0 13 -4 24 -10 24 -5 0 -10 -9 -10 -20z"/> <path d="M1210 100 c0 -11 6 -20 14 -20 8 0 22 -3 31 -6 10 -4 7 3 -9 20 -32 31 -36 32 -36 6z"/> <path d="M2323 103 c-8 -3 -13 -24 -13 -54 l0 -49 62 0 c34 0 58 3 54 7 -4 4 -28 8 -54 8 -46 0 -47 1 -45 29 1 16 8 33 15 37 16 10 -1 29 -19 22z"/> <path d="M1430 80 l-25 -7 28 -8 c31 -8 34 -21 10 -47 -15 -17 -15 -18 3 -18 15 0 23 11 30 39 12 44 1 53 -46 41z"/> <path d="M2620 50 l-45 -7 48 -1 c26 -1 47 3 47 8 0 6 -1 9 -2 8 -2 0 -23 -4 -48 -8z"/> <path d="M2820 40 l-25 -8 25 0 c14 0 34 3 45 8 20 9 20 9 0 8 -11 0 -31 -4 -45 -8z"/> </g> </svg> 